<svg width="527" height="320" viewBox="0 0 527 320" fill="none" xmlns="http://www.w3.org/2000/svg">
<path d="M516.577 289.005C515.233 291.465 513.885 293.651 512.619 295.547C512.581 295.603 512.544 295.659 512.506 295.715C508.843 301.171 502.699 304.436 496.128 304.436C460.919 304.434 339.396 304.43 301.519 304.417C301.519 304.417 102.81 303.854 40.6504 303.652C28.4864 303.613 17.5038 296.411 12.5763 285.289C6.979 272.662 0.911461 254.468 0.208591 233.848C-0.910344 201.134 11.4739 162.312 60.6602 129.928C102.926 102.099 58.0146 83.7306 91.6257 52.7486C130.25 17.1489 172.404 56.5323 215.356 40.3891C222.944 37.5396 230.559 32.9531 238.18 25.9142C242.473 21.9559 247.176 18.497 252.21 15.5058C252.982 15.0462 253.762 14.5988 254.55 14.1599C257.566 12.4898 260.69 10.9796 263.91 9.61909C266.074 8.71015 268.274 7.86562 270.521 7.09181C274.082 5.86254 277.743 4.80171 281.478 3.90517C286.782 2.63021 292.246 1.68166 297.815 1.03885C300.246 0.755962 302.697 0.537485 305.163 0.371233C353.154 -2.85501 407.164 15.2808 435.036 41.7866C440.646 47.1263 466.164 74.7428 446.052 112.703C433.351 136.669 486.552 159.56 505.457 186.929C517.286 204.052 523.339 219.808 525.733 233.848C529.827 257.827 523.254 276.795 516.577 289.005Z" fill="#C5D7FF"/>
<path d="M179.778 233.915L178.746 233.782C178.77 233.597 179.382 229.213 183.703 226.479C187.521 224.063 186.218 216.512 186.204 216.436L187.227 216.252C187.242 216.336 187.595 218.328 187.429 220.68C187.204 223.879 186.107 226.188 184.259 227.358C180.347 229.833 179.783 233.875 179.778 233.915Z" fill="#283689"/>
<path d="M186.431 234.098C186.406 234.051 183.898 229.341 188.422 226.479C192.159 224.114 188.842 216.774 188.808 216.7L189.753 216.266C189.791 216.348 190.683 218.307 191.065 220.628C191.593 223.833 190.872 226.16 188.978 227.358C185.269 229.704 187.257 233.441 187.343 233.599L186.431 234.098Z" fill="#283689"/>
<path d="M516.628 300.131C516.541 300.326 516.456 300.519 516.368 300.713C516.194 301.1 516.021 301.48 515.847 301.855C514.678 304.378 513.513 306.646 512.41 308.644C512.373 308.713 512.336 308.78 512.298 308.848C508.635 315.463 502.491 319.421 495.92 319.421C481.952 319.421 454.4 319.419 423.876 319.417H419.716C403.08 319.415 385.714 319.415 369.298 319.411H364.394C337.988 319.408 314.544 319.404 301.311 319.398C301.311 319.398 234.766 319.169 166.65 318.93C165.497 318.926 164.343 318.922 163.191 318.917C143.362 318.847 123.493 318.776 105.187 318.709C102.818 318.701 100.476 318.693 98.1625 318.685C74.6542 318.601 54.2033 318.524 40.442 318.47C30.8075 318.433 21.9132 312.948 16.1826 303.966C15.881 303.494 15.5878 303.012 15.3049 302.519C14.1734 300.56 13.1874 298.45 12.3679 296.21C6.7704 280.901 0.703088 258.844 0 233.849H525.525C529.564 262.538 523.214 285.312 516.628 300.131Z" fill="#8FA6EF"/>
<path d="M402.829 286.384H107.322L137.106 256.045H376.873L402.829 286.384Z" fill="#505ABA"/>
<path d="M402.829 286.384H107.322V290.26H402.829V286.384Z" fill="#2B478B"/>
<path d="M374.335 262.407H138.81V263.442H374.335V262.407Z" fill="#2B478B"/>
<path d="M380.652 268.746H130.826V269.781H380.652V268.746Z" fill="#2B478B"/>
<path d="M387.304 275.752H124.172V276.786H387.304V275.752Z" fill="#2B478B"/>
<path d="M150.652 257.735H140.004V260.929H150.652V257.735Z" fill="#2B478B"/>
<path d="M232.219 257.735H221.57V260.929H232.219V257.735Z" fill="#2B478B"/>
<path d="M249.345 257.735H238.696V260.929H249.345V257.735Z" fill="#2B478B"/>
<path d="M294.871 257.735H284.222V260.929H294.871V257.735Z" fill="#2B478B"/>
<path d="M310.706 257.735H300.057V260.929H310.706V257.735Z" fill="#2B478B"/>
<path d="M327.832 257.735H317.183V260.929H327.832V257.735Z" fill="#2B478B"/>
<path d="M512.675 233.849H510.584C505.863 226.947 501.772 226.628 493.843 226.012C491.404 225.824 488.637 225.609 485.399 225.173C478.177 224.203 475.802 220.327 473.055 215.838C471.809 213.805 470.526 211.704 468.648 209.58C462.883 203.058 449.926 204.963 449.795 204.982L449.528 203.259C450.097 203.172 463.556 201.185 469.953 208.424C471.932 210.665 473.319 212.93 474.543 214.928C477.263 219.373 479.231 222.584 485.634 223.445C488.822 223.873 491.562 224.086 493.977 224.274C502.601 224.944 507.218 225.301 512.675 233.849Z" fill="#2B478B"/>
<path d="M443.118 245.832H404.008C400.467 245.832 397.598 242.962 397.598 239.422V200.313C397.598 196.772 400.468 193.902 404.008 193.902H443.118C446.658 193.902 449.528 196.772 449.528 200.313V239.422C449.528 242.962 446.658 245.832 443.118 245.832Z" fill="#778DE8"/>
<path d="M441.364 218.699C441.364 219.631 441.293 220.547 441.154 221.441C441.121 221.659 441.083 221.874 441.04 222.09C440.745 223.627 440.252 225.093 439.59 226.462C439.527 226.593 439.462 226.723 439.393 226.851C438.235 229.103 436.608 231.076 434.643 232.643C434.536 232.728 434.43 232.812 434.321 232.894C432.321 234.418 429.985 235.527 427.444 236.094H427.441L426.984 236.192H426.981C426.337 236.317 425.683 236.41 425.016 236.462C424.798 236.481 424.582 236.497 424.364 236.503H424.362C424.089 236.519 423.813 236.525 423.538 236.525C421.641 236.525 419.813 236.228 418.095 235.677C417.828 235.592 417.564 235.502 417.302 235.402C416.689 235.175 416.092 234.913 415.514 234.619C415.383 234.554 415.255 234.488 415.127 234.42C412.649 233.09 410.524 231.193 408.924 228.903C408.845 228.792 408.765 228.68 408.689 228.566C407.591 226.914 406.76 225.068 406.258 223.09C406.19 222.82 406.127 222.547 406.073 222.272C405.936 221.604 405.838 220.925 405.778 220.233C405.764 220.062 405.751 219.89 405.742 219.718V219.716C405.724 219.377 405.712 219.039 405.712 218.699C405.712 216.845 405.996 215.06 406.52 213.378C406.566 213.231 406.615 213.082 406.666 212.934C407.501 210.487 408.855 208.279 410.594 206.442C410.69 206.344 410.782 206.246 410.88 206.15C412.638 204.373 414.77 202.967 417.149 202.054C417.285 201.999 417.422 201.95 417.561 201.901C419.431 201.236 421.442 200.873 423.538 200.873C424.541 200.873 425.525 200.955 426.482 201.116C426.651 201.143 426.82 201.173 426.989 201.209C427.109 201.231 427.229 201.255 427.348 201.282C427.583 201.334 427.817 201.388 428.049 201.451C430.622 202.119 432.971 203.354 434.953 205.008C435.059 205.095 435.163 205.183 435.266 205.275C437.362 207.107 439.022 209.421 440.077 212.043C440.134 212.176 440.186 212.31 440.235 212.446C440.671 213.605 440.987 214.823 441.173 216.082C441.208 216.317 441.238 216.554 441.26 216.791V216.794C441.328 217.421 441.364 218.056 441.364 218.699Z" fill="#E27227"/>
<path d="M434.643 232.643C434.536 232.728 434.43 232.812 434.321 232.894L431.947 230.247L431.674 229.945L426.795 224.501L426.523 224.199L421.015 218.058L420.742 217.756L415.305 211.691L415.032 211.386L410.595 206.442C410.69 206.344 410.783 206.245 410.881 206.15L415.334 211.116L415.607 211.419L421.044 217.483L421.317 217.786L426.825 223.926L427.098 224.229L431.98 229.672L432.249 229.975L434.643 232.643Z" fill="#1C3870"/>
<path d="M439.59 226.462C439.527 226.592 439.462 226.723 439.393 226.851L437.761 225.031L437.488 224.728L432.609 219.288L432.337 218.985L426.829 212.844L426.556 212.542L421.116 206.474L420.846 206.172L417.15 202.054C417.286 201.999 417.423 201.95 417.562 201.901L421.149 205.902L421.421 206.205L426.859 212.269L427.131 212.572L432.64 218.712L432.912 219.015L437.791 224.458L438.063 224.761L439.59 226.462Z" fill="#1C3870"/>
<path d="M441.173 216.082C441.208 216.317 441.239 216.554 441.26 216.791L438.644 213.875L438.374 213.572L432.863 207.429L432.593 207.126L427.349 201.282C427.583 201.334 427.818 201.389 428.05 201.451L432.896 206.853L433.168 207.156L438.677 213.299L438.946 213.602L441.173 216.082Z" fill="#1C3870"/>
<path d="M427.442 236.094L426.984 236.192H426.981L426.24 235.363L425.97 235.06L421.088 229.62L420.816 229.318L415.31 223.177L415.037 222.871L409.597 216.81L409.324 216.505L406.52 213.379C406.566 213.231 406.615 213.082 406.667 212.934L409.627 216.235L409.9 216.538L415.34 222.602L415.61 222.905L421.121 229.045L421.391 229.348L426.272 234.791L426.545 235.094L427.442 236.094Z" fill="#1C3870"/>
<path d="M426.989 201.208L421.421 206.204L421.115 206.474L415.607 211.418L415.304 211.691L409.9 216.537L409.597 216.809L405.778 220.232C405.765 220.061 405.751 219.889 405.743 219.717V219.715L409.324 216.504L409.627 216.234L415.032 211.385L415.334 211.116L420.846 206.171L421.148 205.902L426.482 201.115C426.651 201.143 426.82 201.173 426.989 201.208Z" fill="#1C3870"/>
<path d="M435.267 205.275L433.168 207.156L432.863 207.429L427.131 212.572L426.828 212.845L421.317 217.786L421.015 218.058L415.61 222.905L415.31 223.177L410.638 227.363L410.336 227.636L408.924 228.903C408.845 228.791 408.766 228.68 408.69 228.566L410.066 227.333L410.369 227.061L415.037 222.871L415.34 222.602L420.742 217.756L421.045 217.483L426.556 212.541L426.858 212.269L432.593 207.126L432.896 206.853L434.954 205.008C435.06 205.095 435.163 205.183 435.267 205.275Z" fill="#1C3870"/>
<path d="M440.236 212.447L438.946 213.602L438.644 213.875L432.912 219.015L432.609 219.288L427.098 224.229L426.795 224.502L421.391 229.348L421.088 229.621L416.419 233.807L416.117 234.08L415.514 234.619C415.383 234.554 415.255 234.488 415.127 234.42L415.844 233.777L416.146 233.505L420.815 229.318L421.121 229.045L426.523 224.199L426.825 223.927L432.336 218.985L432.639 218.713L438.374 213.572L438.676 213.3L440.077 212.043C440.135 212.177 440.186 212.31 440.236 212.447Z" fill="#1C3870"/>
<path d="M441.154 221.441C441.121 221.659 441.083 221.874 441.04 222.09L438.063 224.761L437.761 225.031L432.25 229.975L431.947 230.247L426.545 235.094L426.24 235.363L425.016 236.462C424.798 236.481 424.582 236.497 424.364 236.503L425.97 235.061L426.272 234.791L431.674 229.945L431.98 229.673L437.488 224.728L437.791 224.458L441.154 221.441Z" fill="#1C3870"/>
<path d="M418.096 235.677C417.828 235.592 417.564 235.502 417.302 235.402L416.117 234.079L415.844 233.777L410.336 227.636L410.066 227.333L406.258 223.09C406.19 222.82 406.127 222.547 406.073 222.272L410.369 227.061L410.638 227.364L416.146 233.504L416.419 233.807L418.096 235.677Z" fill="#1C3870"/>
<path d="M443.118 194.069H404.008C400.467 194.069 397.598 191.199 397.598 187.658V148.549C397.598 145.009 400.468 142.139 404.008 142.139H443.118C446.658 142.139 449.528 145.009 449.528 148.549V187.658C449.528 191.199 446.658 194.069 443.118 194.069Z" fill="#8C9DF4"/>
<path d="M441.364 166.935C441.364 167.867 441.293 168.783 441.154 169.677C441.121 169.895 441.083 170.111 441.04 170.326C440.745 171.863 440.252 173.33 439.59 174.698C439.527 174.829 439.462 174.959 439.393 175.087C438.235 177.339 436.608 179.312 434.643 180.879C434.536 180.964 434.43 181.048 434.321 181.13C432.321 182.654 429.985 183.763 427.444 184.33H427.441L426.984 184.428H426.981C426.337 184.553 425.683 184.646 425.016 184.698C424.798 184.717 424.582 184.733 424.364 184.739H424.362C424.089 184.755 423.813 184.761 423.538 184.761C421.641 184.761 419.813 184.464 418.095 183.913C417.828 183.828 417.564 183.738 417.302 183.638C416.689 183.411 416.092 183.15 415.514 182.855C415.383 182.79 415.255 182.724 415.127 182.656C412.649 181.326 410.524 179.429 408.924 177.14C408.845 177.028 408.765 176.916 408.689 176.802C407.591 175.15 406.76 173.305 406.258 171.326C406.19 171.056 406.127 170.784 406.073 170.508C405.936 169.84 405.838 169.162 405.778 168.469C405.764 168.298 405.751 168.126 405.742 167.954V167.951C405.724 167.614 405.712 167.276 405.712 166.935C405.712 165.082 405.996 163.296 406.52 161.614C406.566 161.467 406.615 161.317 406.666 161.17C407.501 158.723 408.855 156.515 410.594 154.678C410.69 154.58 410.782 154.482 410.88 154.386C412.638 152.609 414.77 151.203 417.149 150.29C417.285 150.235 417.422 150.186 417.561 150.137C419.431 149.472 421.442 149.109 423.538 149.109C424.541 149.109 425.525 149.191 426.482 149.352C426.651 149.379 426.82 149.41 426.989 149.445C427.109 149.467 427.229 149.491 427.348 149.518C427.583 149.57 427.817 149.625 428.049 149.687C430.622 150.355 432.971 151.59 434.953 153.244C435.059 153.331 435.163 153.419 435.266 153.511C437.362 155.343 439.022 157.657 440.077 160.279C440.134 160.413 440.186 160.546 440.235 160.683C440.671 161.841 440.987 163.059 441.173 164.319C441.208 164.553 441.238 164.79 441.26 165.027V165.03C441.328 165.657 441.364 166.292 441.364 166.935Z" fill="#E27227"/>
<path d="M434.643 180.879C434.536 180.964 434.43 181.048 434.321 181.13L431.947 178.484L431.674 178.181L426.795 172.738L426.523 172.435L421.015 166.294L420.742 165.992L415.305 159.927L415.032 159.622L410.595 154.678C410.69 154.58 410.783 154.482 410.881 154.386L415.334 159.352L415.607 159.655L421.044 165.719L421.317 166.022L426.825 172.163L427.098 172.465L431.98 177.908L432.249 178.211L434.643 180.879Z" fill="#1C3870"/>
<path d="M439.59 174.698C439.527 174.829 439.462 174.959 439.393 175.087L437.761 173.267L437.488 172.964L432.609 167.524L432.337 167.221L426.829 161.081L426.556 160.778L421.116 154.711L420.846 154.408L417.15 150.29C417.286 150.235 417.423 150.186 417.562 150.137L421.149 154.139L421.421 154.441L426.859 160.505L427.131 160.808L432.64 166.949L432.912 167.251L437.791 172.695L438.063 172.997L439.59 174.698Z" fill="#1C3870"/>
<path d="M441.173 164.319C441.208 164.553 441.239 164.79 441.26 165.027L438.644 162.111L438.374 161.809L432.863 155.665L432.593 155.363L427.349 149.519C427.583 149.571 427.818 149.625 428.05 149.688L432.896 155.09L433.168 155.392L438.677 161.536L438.946 161.838L441.173 164.319Z" fill="#1C3870"/>
<path d="M427.442 184.33L426.984 184.428H426.981L426.24 183.6L425.97 183.297L421.088 177.857L420.816 177.554L415.31 171.413L415.037 171.108L409.597 165.046L409.324 164.741L406.52 161.615C406.566 161.468 406.615 161.318 406.667 161.171L409.627 164.471L409.9 164.774L415.34 170.838L415.61 171.141L421.121 177.282L421.391 177.584L426.272 183.028L426.545 183.33L427.442 184.33Z" fill="#1C3870"/>
<path d="M426.989 149.444L421.421 154.44L421.115 154.71L415.607 159.654L415.304 159.927L409.9 164.773L409.597 165.046L405.778 168.469C405.765 168.297 405.751 168.126 405.743 167.954V167.951L409.324 164.74L409.627 164.47L415.032 159.622L415.334 159.352L420.846 154.408L421.148 154.138L426.482 149.352C426.651 149.379 426.82 149.409 426.989 149.444Z" fill="#1C3870"/>
<path d="M435.267 153.512L433.168 155.393L432.863 155.665L427.131 160.808L426.828 161.081L421.317 166.022L421.015 166.295L415.61 171.141L415.31 171.414L410.638 175.6L410.336 175.872L408.924 177.14C408.845 177.028 408.766 176.916 408.69 176.802L410.066 175.57L410.369 175.297L415.037 171.108L415.34 170.838L420.742 165.992L421.045 165.72L426.556 160.778L426.858 160.506L432.593 155.363L432.896 155.09L434.954 153.245C435.06 153.332 435.163 153.419 435.267 153.512Z" fill="#1C3870"/>
<path d="M440.236 160.683L438.946 161.838L438.644 162.111L432.912 167.251L432.609 167.524L427.098 172.465L426.795 172.738L421.391 177.584L421.088 177.857L416.419 182.043L416.117 182.316L415.514 182.855C415.383 182.79 415.255 182.724 415.127 182.656L415.844 182.013L416.146 181.741L420.815 177.554L421.121 177.282L426.523 172.435L426.825 172.163L432.336 167.221L432.639 166.949L438.374 161.808L438.676 161.536L440.077 160.279C440.135 160.413 440.186 160.547 440.236 160.683Z" fill="#1C3870"/>
<path d="M441.154 169.677C441.121 169.895 441.083 170.111 441.04 170.326L438.063 172.997L437.761 173.267L432.25 178.211L431.947 178.483L426.545 183.33L426.24 183.599L425.016 184.698C424.798 184.717 424.582 184.733 424.364 184.739L425.97 183.297L426.272 183.027L431.674 178.181L431.98 177.908L437.488 172.964L437.791 172.694L441.154 169.677Z" fill="#1C3870"/>
<path d="M418.096 183.913C417.828 183.829 417.564 183.739 417.302 183.638L416.117 182.316L415.844 182.013L410.336 175.872L410.066 175.57L406.258 171.326C406.19 171.056 406.127 170.784 406.073 170.508L410.369 175.297L410.638 175.6L416.146 181.741L416.419 182.043L418.096 183.913Z" fill="#1C3870"/>
<path d="M430.558 278.96L458.105 254.175C459.228 253.165 462.293 252.471 464.95 252.625L500.291 254.67C502.949 254.824 504.193 255.767 503.07 256.778L475.523 281.563C474.4 282.573 471.336 283.267 468.678 283.113L433.337 281.068C430.679 280.914 429.435 279.97 430.558 278.96Z" fill="#1B376D"/>
<path d="M503.483 255.611V252.604L430.828 275.974L430.201 276.623L430.145 279.807L462.245 280.856L503.483 255.611Z" fill="#1B376D"/>
<path d="M464.447 249.515L499.187 251.525C501.975 251.687 503.281 252.677 502.103 253.737L476.208 277.035C474.512 278.56 469.884 279.609 465.87 279.376L434.743 277.575C431.788 277.404 430.405 276.355 431.653 275.232L458.819 250.79C459.742 249.96 462.262 249.389 464.447 249.515Z" fill="#505ABA"/>
<path d="M503.472 252.608C503.354 251.957 502.178 251.454 500.292 251.344L464.95 249.299C462.292 249.143 459.23 249.84 458.107 250.848L430.559 275.632C430.172 275.979 430.064 276.32 430.201 276.622V276.624C430.393 277.045 431.052 277.394 432.08 277.592H432.082C432.454 277.662 432.874 277.714 433.336 277.741L464.395 279.539H464.397L468.678 279.786C471.336 279.94 474.402 279.245 475.521 278.237L494.67 261.005L494.672 261.003L501.547 254.819L503.069 253.451C503.35 253.197 503.483 252.949 503.483 252.717C503.483 252.679 503.479 252.644 503.472 252.608ZM501.85 253.378L500.406 254.676L500.404 254.678L490.63 263.478L490.616 263.491L474.67 277.833L474.668 277.835L474.367 278.107L474.364 278.109L474.302 278.166C473.463 278.921 471.176 279.437 469.193 279.322L469.05 279.316H469.039L465.133 279.087L433.852 277.278C433.382 277.248 432.968 277.188 432.624 277.101C431.524 276.826 431.137 276.281 431.776 275.703L431.838 275.651L431.842 275.647L432.144 275.374L459.324 250.917C460.162 250.166 462.452 249.648 464.436 249.763L499.774 251.805C501.461 251.903 502.385 252.427 502.11 253.045C502.064 253.155 501.979 253.264 501.85 253.378Z" fill="#2B478B"/>
<path d="M432.791 277.462L468.762 279.544C471.178 279.684 473.965 279.052 474.987 278.134L475.28 277.87L431.535 275.338L430.828 275.974C430.035 276.687 430.914 277.354 432.791 277.462Z" fill="#2B478B"/>
<path d="M516.628 300.131C516.541 300.326 516.456 300.52 516.368 300.713C516.194 301.1 516.021 301.48 515.847 301.855C509.201 301.799 500.75 302.375 491.961 302.976C469.231 304.528 445.731 306.132 438.228 298.843C435.747 296.428 434.858 293.874 435.582 291.243C436.716 287.135 441.577 283.776 445.25 281.758C445.25 281.755 445.252 281.755 445.252 281.755C446.28 281.19 447.218 280.73 447.955 280.389H447.957C448.855 279.971 449.458 279.728 449.562 279.688L450.07 280.458L450.577 281.23C450.551 281.24 449.906 281.5 448.918 281.97C445.737 283.474 438.998 287.133 437.762 291.607C437.178 293.733 437.894 295.744 439.963 297.755C446.723 304.322 470.656 302.689 491.768 301.247C500.929 300.622 509.729 300.023 516.628 300.131Z" fill="#1B376D"/>
<path d="M385.438 64.4781H124.714V217.538H385.438V64.4781Z" fill="#F99746"/>
<path d="M385.438 64.4781H124.714V193.086H385.438V64.4781Z" fill="#283689"/>
<path d="M289.197 242.473V246.191H212.642V242.473C218.051 242.473 222.483 238.297 222.892 232.995C222.912 232.731 222.923 232.462 222.923 232.193V217.538H278.917V232.193C278.917 232.462 278.928 232.731 278.947 232.995C279.142 235.513 280.245 237.779 281.926 239.463C283.788 241.323 286.358 242.473 289.197 242.473Z" fill="#F99746"/>
<g opacity="0.7">
<path opacity="0.7" d="M278.917 217.538H222.922V220.6H278.917V217.538Z" fill="#D86713"/>
</g>
<g opacity="0.7">
<path opacity="0.7" d="M289.197 242.473H212.642C218.051 242.473 222.483 238.297 222.892 232.995H278.947C279.142 235.513 280.245 237.779 281.926 239.463C283.788 241.323 286.358 242.473 289.197 242.473Z" fill="#D86713"/>
</g>
<path d="M68.532 195.539C68.532 195.539 65.8185 171.455 76.2388 151.16C77.3438 149.007 80.0867 149.55 80.5389 152.013C82.1596 160.843 83.7754 178.48 76.3064 197.219C65.6783 223.885 68.532 195.539 68.532 195.539Z" fill="#A8D29F"/>
<path d="M80.9768 200.301C80.9768 200.301 82.6789 176.124 96.6096 158.057C98.0865 156.141 100.686 157.172 100.683 159.676C100.675 168.653 99.0627 186.291 88.3171 203.364C73.0263 227.658 80.9768 200.301 80.9768 200.301Z" fill="#A8D29F"/>
<path d="M74.0449 195.486C74.0449 195.486 74.0941 171.249 86.7597 152.273C88.1025 150.261 90.7658 151.113 90.9342 153.611C91.5379 162.568 91.1334 180.275 81.5774 198.041C67.9795 223.321 74.0449 195.486 74.0449 195.486Z" fill="#82B378"/>
<path d="M82.2319 196.71C82.2319 196.71 87.0147 178.403 100.303 166.541C101.711 165.283 103.558 166.448 103.196 168.369C101.898 175.257 98.125 188.56 87.4244 200.116C72.1976 216.56 82.2319 196.71 82.2319 196.71Z" fill="#82B378"/>
<path d="M64.3518 198.363C64.3518 198.363 67.0649 174.279 56.6446 153.983C55.5398 151.831 52.7967 152.373 52.3445 154.836C50.7239 163.666 49.1082 181.304 56.5771 200.043C67.2053 226.709 64.3518 198.363 64.3518 198.363Z" fill="#A8D29F"/>
<path d="M51.9071 203.125C51.9071 203.125 50.2047 178.948 36.274 160.88C34.7969 158.964 32.198 159.996 32.2004 162.5C32.2091 171.477 33.8209 189.115 44.5668 206.188C59.8576 230.482 51.9071 203.125 51.9071 203.125Z" fill="#A8D29F"/>
<path d="M58.8387 198.309C58.8387 198.309 58.7896 174.073 46.124 155.097C44.7811 153.085 42.1178 153.936 41.9494 156.435C41.3455 165.391 41.7503 183.098 51.3063 200.864C64.9043 226.145 58.8387 198.309 58.8387 198.309Z" fill="#82B378"/>
<path d="M72.9462 199.613C72.9462 199.613 77.5163 175.811 68.6985 154.769C67.7634 152.538 64.987 152.867 64.3453 155.288C62.0462 163.965 59.0694 181.425 65.0651 200.686C73.5968 228.094 72.9462 199.613 72.9462 199.613Z" fill="#82B378"/>
<path d="M50.6515 199.534C50.6515 199.534 45.8687 181.226 32.581 169.365C31.172 168.107 29.326 169.272 29.6879 171.193C30.9853 178.08 34.7584 191.383 45.459 202.94C60.686 219.383 50.6515 199.534 50.6515 199.534Z" fill="#82B378"/>
<path d="M79.9412 239.424H53.8138C42.9632 239.424 34.0855 230.546 34.0855 219.695V195.872C34.0855 195.303 34.5512 194.836 35.1204 194.836H99.6696V219.695C99.6696 230.546 90.7919 239.424 79.9412 239.424Z" fill="#2B478B"/>
<path d="M381.543 67.8652H128.093V188.236H381.543V67.8652Z" fill="#505ABA"/>
<g opacity="0.1">
<path opacity="0.1" d="M188.409 73.4202H134.065V127.764H188.409V73.4202Z" fill="#DDE7FE"/>
</g>
<g opacity="0.1">
<path opacity="0.1" d="M188.409 133.745H134.065V183.255H188.409V133.745Z" fill="#DDE7FE"/>
</g>
<g opacity="0.1">
<path opacity="0.1" d="M373.959 139.976H198.936V183.255H373.959V139.976Z" fill="#DDE7FE"/>
</g>
<path d="M310.81 73.4182H198.938V134.642H310.81V73.4182Z" fill="#EBF2F9"/>
<path d="M305.491 90.1229V134.642H198.938V101.399H202.917V103.462H206.187V102.264H209.217V97.5111H210.727V95.2937H210.956V97.5111H214.579V93.3552H214.935V97.5111H217.331V97.4528H217.327V96.9264H217.331V96.4274H217.327V95.5953H217.331V95.0648H217.327V94.2348H217.331V93.7043H217.327V92.8743H217.331V92.2998H217.327V91.4682H217.331V90.7403H217.327V89.9081H217.331V89.3591H218.045V88.7372H218.159V89.3591H223.451V88.7372H223.563V89.3591H224.53V93.7043L225.208 93.7065V93.7043H225.204V92.8743H225.208V92.2998H225.204V91.4682H225.208V90.8982H225.204V90.0683H225.208V90.0639H231.623V90.0683H232.728C232.784 90.0892 232.84 90.1118 232.898 90.1325V94.8752H237.586V101.103H241.374V89.5854H242.2V88.7805H242.348V89.5854H245.339V88.7805H245.487V89.5854H249.724V88.7805H249.872V89.5854H252.538V88.7805H252.686V89.5854H253.782V100.335H257.969V98.598L262.907 98.6124V95.7942H263.901V95.2388H264.032V95.7942H267.845V95.7964H268.608V95.2391H268.74V95.7964H269.659V101.398H275.539V103.461H278.807V102.263H281.838V97.5102H283.35V95.2928H283.576V97.5102H287.2V93.3544H287.556V97.5102H289.952V97.4519H289.948V96.9255H289.952V96.4265H289.948V95.5953H289.952V95.0648H289.948V94.2348H289.952V93.7043H289.948V92.8743H289.952V92.2998H289.948V91.4682H289.952V90.7403H289.948V89.9081H289.952V89.3591H290.667V88.7372H290.782V89.3591H296.071V88.7372H296.186V89.3591H297.151V93.7043L297.821 93.7065H297.831V93.7043H297.825V92.8743H297.831V92.2998H297.825V91.4682H297.831V90.8982H297.825V90.0683H297.831V90.0639H304.246V90.0683H305.348C305.396 90.0855 305.441 90.1062 305.491 90.1229Z" fill="#D5E5FB"/>
<path d="M253.783 89.5879H244.318V91.4097H253.783V89.5879Z" fill="#E2EEFD"/>
<path d="M294.38 89.3594H289.964V90.4659H294.38V89.3594Z" fill="#E2EEFD"/>
<path d="M294.38 91.0625H289.964V92.169H294.38V91.0625Z" fill="#E2EEFD"/>
<path d="M294.38 92.8011H289.964V93.9079H294.38V92.8011Z" fill="#E2EEFD"/>
<path d="M294.38 94.568H289.964V95.6745H294.38V94.568Z" fill="#E2EEFD"/>
<path d="M294.38 96.2725H289.964V97.379H294.38V96.2725Z" fill="#E2EEFD"/>
<path d="M294.38 98.1486H289.964V99.2551H294.38V98.1486Z" fill="#E2EEFD"/>
<path d="M294.38 99.8517H289.964V100.958H294.38V99.8517Z" fill="#E2EEFD"/>
<path d="M294.38 101.59H289.964V102.697H294.38V101.59Z" fill="#E2EEFD"/>
<path d="M294.38 103.357H289.964V104.463H294.38V103.357Z" fill="#E2EEFD"/>
<path d="M294.38 105.061H289.964V106.168H294.38V105.061Z" fill="#E2EEFD"/>
<path d="M222.019 89.3594H217.287V90.4659H222.019V89.3594Z" fill="#E2EEFD"/>
<path d="M222.019 91.0625H217.287V92.169H222.019V91.0625Z" fill="#E2EEFD"/>
<path d="M222.019 92.8011H217.287V93.9079H222.019V92.8011Z" fill="#E2EEFD"/>
<path d="M222.019 94.568H217.287V95.6745H222.019V94.568Z" fill="#E2EEFD"/>
<path d="M222.019 96.2725H217.287V97.379H222.019V96.2725Z" fill="#E2EEFD"/>
<path d="M222.019 98.1486H217.287V99.2551H222.019V98.1486Z" fill="#E2EEFD"/>
<path d="M222.019 99.8517H217.287V100.958H222.019V99.8517Z" fill="#E2EEFD"/>
<path d="M222.019 101.59H217.287V102.697H222.019V101.59Z" fill="#E2EEFD"/>
<path d="M222.019 103.357H217.287V104.463H222.019V103.357Z" fill="#E2EEFD"/>
<path d="M222.019 105.061H217.287V106.168H222.019V105.061Z" fill="#E2EEFD"/>
<path d="M230.679 90.0851H225.301V91.1916H230.679V90.0851Z" fill="#E2EEFD"/>
<path d="M230.679 91.7883H225.301V92.8949H230.679V91.7883Z" fill="#E2EEFD"/>
<path d="M230.679 93.5271H225.301V94.6336H230.679V93.5271Z" fill="#E2EEFD"/>
<path d="M230.679 95.2937H225.301V96.4002H230.679V95.2937Z" fill="#E2EEFD"/>
<path d="M230.679 96.998H225.301V98.1046H230.679V96.998Z" fill="#E2EEFD"/>
<path d="M230.679 98.7748H225.301V99.8815H230.679V98.7748Z" fill="#E2EEFD"/>
<path d="M230.679 100.478H225.301V101.585H230.679V100.478Z" fill="#E2EEFD"/>
<path d="M230.679 102.217H225.301V103.324H230.679V102.217Z" fill="#E2EEFD"/>
<path d="M230.679 103.984H225.301V105.09H230.679V103.984Z" fill="#E2EEFD"/>
<path d="M230.679 105.688H225.301V106.795H230.679V105.688Z" fill="#E2EEFD"/>
<path d="M295.941 85.5287H295.525L295.529 85.4963L295.655 84.3874C295.659 84.3517 295.689 84.3247 295.725 84.3247C295.729 84.3247 295.734 84.3251 295.738 84.3256C295.761 84.3286 295.783 84.3386 295.8 84.3536C295.82 84.3717 295.833 84.3967 295.836 84.4252L295.941 85.5287Z" fill="#9DB0F4"/>
<path d="M295.565 85.2772L295.551 85.2776L295.655 84.3874C295.659 84.3517 295.689 84.3247 295.725 84.3247C295.729 84.3247 295.734 84.3251 295.738 84.3256C295.742 84.3291 295.746 84.3323 295.749 84.336C295.768 84.3556 295.779 84.3817 295.779 84.4104L295.785 85.0502C295.786 85.1732 295.688 85.2743 295.565 85.2772Z" fill="#AFCDFB"/>
<path d="M296.206 90.4625H295.404V125.855H296.206V90.4625Z" fill="#9DB0F4"/>
<path d="M295.775 90.4625H295.404V125.855H295.775V90.4625Z" fill="#AEC3FF"/>
<path d="M297.082 120.207H294.529V129.571H297.082V120.207Z" fill="#9DB0F4"/>
<path d="M296.05 120.207H294.529V129.571H296.05V120.207Z" fill="#AEC3FF"/>
<path d="M297.2 86.0632C297.2 86.5006 296.543 86.8548 295.733 86.8548C295.671 86.8548 295.611 86.8529 295.551 86.8488C294.827 86.8004 294.266 86.4671 294.266 86.0634C294.266 85.6595 294.827 85.3264 295.551 85.2781C295.611 85.2737 295.671 85.272 295.733 85.272C296.544 85.2715 297.2 85.626 297.2 86.0632Z" fill="#9DB0F4"/>
<path d="M296.441 86.0631C296.441 86.4156 296.074 86.7183 295.551 86.8484C294.827 86.8001 294.266 86.4667 294.266 86.0631C294.266 85.6592 294.827 85.326 295.551 85.2777C296.074 85.4078 296.441 85.7103 296.441 86.0631Z" fill="#AEC3FF"/>
<path d="M297.079 91.1602H294.526L293.626 86.8262H297.841L297.079 91.1602Z" fill="#AEC3FF"/>
<path d="M298.068 86.4998H293.398V86.9154H298.068V86.4998Z" fill="#9DB0F4"/>
<path d="M296.334 86.4998H293.398V86.9154H296.334V86.4998Z" fill="#AEC3FF"/>
<path d="M294.947 120.207H296.578L296.34 119.483C296.318 119.419 296.258 119.376 296.19 119.376H295.426C295.343 119.376 295.269 119.425 295.237 119.502L294.947 120.207Z" fill="#819DEA"/>
<path d="M293.927 87.0377H297.527L296.824 90.9331H294.757L293.927 87.0377Z" fill="#C5D7FF"/>
<path d="M297.77 86.4998H293.696L294.03 86.0248H297.453L297.77 86.4998Z" fill="#9DB0F4"/>
<path d="M296.767 86.4998H293.696L294.03 86.0248H296.45L296.767 86.4998Z" fill="#AEC3FF"/>
<path d="M224.674 129.61L198.938 129.602V123.318C199.021 123.358 199.104 123.397 199.187 123.439C202.698 125.228 202.238 127.609 206.586 126.736C210.933 125.864 214.519 125.498 216.466 126.736C218.413 127.975 219.842 127.482 222.263 127.474C224.27 127.468 224.614 129.065 224.674 129.61Z" fill="#A8D29F"/>
<path d="M230.015 122.411H205.491L204.358 116.647H228.837L230.015 122.411Z" fill="#D36D1A"/>
<path d="M230.435 122.411H205.911L204.778 116.647H229.257L230.435 122.411Z" fill="#F49540"/>
<path d="M212.729 123.116H206.028C205.731 123.116 205.491 122.876 205.491 122.58V122.411H212.729V123.116Z" fill="#D36D1A"/>
<path d="M234.948 122.411H212.675V123.116H234.948V122.411Z" fill="#FFA255"/>
<path d="M206.955 123.117L206.535 124.768C206.535 124.768 206.535 124.768 206.535 124.77L205.292 129.66C205.275 129.724 205.218 129.769 205.153 129.769C205.027 129.769 204.931 129.653 204.956 129.53L206.065 123.825L206.203 123.117H206.955Z" fill="#FFA255"/>
<path d="M206.535 124.768C206.576 123.923 206.065 123.825 206.065 123.825L206.203 123.117H206.955L206.535 124.768Z" fill="#D36D1A"/>
<path d="M212.275 123.117L211.855 124.768C211.855 124.768 211.855 124.768 211.855 124.77L210.612 129.66C210.595 129.724 210.538 129.769 210.473 129.769C210.347 129.769 210.251 129.653 210.276 129.53L211.385 123.825L211.523 123.117H212.275Z" fill="#FFA255"/>
<path d="M211.855 124.768C211.895 123.923 211.385 123.825 211.385 123.825L211.523 123.117H212.275L211.855 124.768Z" fill="#D36D1A"/>
<path d="M232.915 123.117L233.335 124.768C233.335 124.768 233.335 124.768 233.335 124.77L234.578 129.66C234.595 129.724 234.652 129.769 234.717 129.769C234.843 129.769 234.939 129.653 234.914 129.53L233.805 123.825L233.667 123.117H232.915Z" fill="#FFA255"/>
<path d="M233.335 124.768C233.295 123.923 233.805 123.825 233.805 123.825L233.667 123.117H232.915L233.335 124.768Z" fill="#D36D1A"/>
<path d="M227.596 123.117L228.016 124.768C228.016 124.768 228.016 124.768 228.016 124.77L229.259 129.66C229.275 129.724 229.333 129.769 229.398 129.769C229.524 129.769 229.62 129.653 229.595 129.53L228.486 123.825L228.348 123.117H227.596Z" fill="#FFA255"/>
<path d="M228.016 124.768C227.975 123.923 228.486 123.825 228.486 123.825L228.348 123.117H227.596L228.016 124.768Z" fill="#D36D1A"/>
<path d="M214.226 89.189C213.594 89.555 212.849 89.788 212.04 89.842C208.489 90.0646 207.258 91.3853 204.385 94.1811C202.842 95.6786 200.714 96.0031 198.938 96.0551V77.0624C199.439 77.4203 199.953 77.7883 200.479 78.1378C202.432 79.4482 204.552 80.511 206.869 79.9472C209.198 79.3795 210.998 79.4147 212.406 79.8684C214.203 80.4342 215.38 81.6654 216.223 83.1754C217.388 85.2492 216.379 87.9575 214.226 89.189Z" fill="#A8D29F"/>
<path d="M243.225 82.4751C243.225 81.5962 243.937 80.8835 244.816 80.8835C245.695 80.8835 246.407 81.5962 246.407 82.4751C246.407 83.3536 245.695 84.066 244.816 84.066C243.937 84.0663 243.225 83.3536 243.225 82.4751Z" fill="#F8FCFF"/>
<path d="M269.421 81.0581C269.421 81.0581 270.804 78.8361 274.11 79.0831C274.11 79.0831 278.91 75.3797 284.028 78.5891C284.028 78.5891 289.469 77.7938 293.498 79.2776C296.184 80.2669 297.072 81.3047 297.072 81.3047L269.421 81.0581Z" fill="#F8FCFF"/>
<g opacity="0.5">
<path opacity="0.5" d="M285.939 86.7682C285.939 86.7682 286.843 85.3148 289.006 85.4763C289.006 85.4763 292.145 83.0543 295.493 85.1533C295.493 85.1533 299.052 84.6332 301.687 85.6038C303.444 86.2509 304.024 86.9296 304.024 86.9296L285.939 86.7682Z" fill="#F8FCFF"/>
</g>
<g opacity="0.5">
<path opacity="0.5" d="M218.412 85.7606C218.412 85.7606 219.316 84.3074 221.478 84.4689C221.478 84.4689 224.618 82.0465 227.965 84.1459C227.965 84.1459 231.524 83.6257 234.159 84.5962C235.917 85.2431 236.497 85.9221 236.497 85.9221L218.412 85.7606Z" fill="#F8FCFF"/>
</g>
<path d="M310.81 129.572H198.938V134.642H310.81V129.572Z" fill="#9DB0F4"/>
<path d="M269.423 128.021C269.423 128.021 268.874 126.033 270.37 124.098C271.865 122.164 274.4 122.684 274.4 122.684C274.4 122.684 274.753 123.228 274.053 123.659C273.353 124.09 270.913 123.227 270.298 127.464C270.298 127.464 270.005 128.34 269.423 128.021Z" fill="#F99746"/>
<path d="M250.453 99.402C250.453 98.9042 250.856 98.5005 251.354 98.5005C251.852 98.5005 252.256 98.9042 252.256 99.402C252.256 99.8999 251.852 100.304 251.354 100.304C250.856 100.304 250.453 99.8999 250.453 99.402Z" fill="#ED7D2B"/>
<path d="M272.28 126.84C272.28 126.141 272.847 125.575 273.545 125.575C274.244 125.575 274.81 126.141 274.81 126.84C274.81 127.538 274.244 128.105 273.545 128.105C272.847 128.105 272.28 127.538 272.28 126.84Z" fill="#9DB0F4"/>
<path d="M244.241 125.874C244.241 124.805 245.108 123.938 246.178 123.938C247.247 123.938 248.114 124.805 248.114 125.874C248.114 126.944 247.247 127.811 246.178 127.811C245.108 127.811 244.241 126.944 244.241 125.874Z" fill="#9DB0F4"/>
<path d="M249.212 100.249L246.138 122.66L246.903 122.765L249.978 100.354L249.212 100.249Z" fill="#131375"/>
<path d="M247.319 101.013V100.147L251.259 99.2852L251.518 100.013L247.319 101.013Z" fill="#ED7D2B"/>
<path d="M246.241 129.549C244.253 129.549 242.635 127.932 242.635 125.944C242.635 123.956 244.253 122.339 246.241 122.339C248.229 122.339 249.846 123.956 249.846 125.944C249.846 127.932 248.229 129.549 246.241 129.549ZM246.241 123.068C244.655 123.068 243.365 124.358 243.365 125.944C243.365 127.53 244.655 128.82 246.241 128.82C247.827 128.82 249.117 127.53 249.117 125.944C249.117 124.358 247.827 123.068 246.241 123.068Z" fill="#060633"/>
<path d="M273.545 129.475C272.092 129.475 270.91 128.293 270.91 126.84C270.91 125.387 272.092 124.205 273.545 124.205C274.998 124.205 276.18 125.387 276.18 126.84C276.18 128.293 274.998 129.475 273.545 129.475ZM273.545 124.784C272.412 124.784 271.49 125.706 271.49 126.84C271.49 127.973 272.412 128.895 273.545 128.895C274.679 128.895 275.601 127.973 275.601 126.84C275.601 125.706 274.679 124.784 273.545 124.784Z" fill="#060633"/>
<path d="M269.656 128.35H251.76C251.44 128.35 251.178 128.088 251.178 127.769V127.491C251.178 127.171 251.44 126.909 251.76 126.909H269.656C269.976 126.909 270.238 127.171 270.238 127.491V127.769C270.238 128.088 269.976 128.35 269.656 128.35Z" fill="#131375"/>
<path d="M269.865 128.358C269.743 128.358 269.63 128.281 269.59 128.16C269.539 128.008 269.621 127.844 269.773 127.793L273.454 126.565C273.605 126.514 273.769 126.596 273.82 126.748C273.871 126.9 273.789 127.064 273.637 127.115L269.956 128.343C269.926 128.353 269.895 128.358 269.865 128.358Z" fill="#131375"/>
<path d="M247.238 117.072L253.407 126.94H254.973L247.566 115.238L247.238 117.072Z" fill="#131375"/>
<path d="M247.59 122.778L247.024 122.606L246.434 124.544C246.238 125.187 245.62 125.605 244.951 125.549L243.078 125.391L243.028 125.98L244.907 126.139C245.685 126.204 246.388 126.629 246.809 127.287L247.803 128.843L248.301 128.524L247.341 127.021C246.892 126.319 246.774 125.456 247.017 124.659L247.59 122.778Z" fill="#060633"/>
<path d="M274.394 124.821L274.026 124.709L273.642 125.969C273.515 126.386 273.113 126.658 272.679 126.622L271.462 126.519L271.43 126.902L272.65 127.005C273.156 127.047 273.613 127.323 273.886 127.751L274.532 128.762L274.856 128.555L274.232 127.579C273.94 127.122 273.864 126.561 274.021 126.044L274.394 124.821Z" fill="#060633"/>
<path d="M273.203 126.792C273.203 126.632 273.333 126.503 273.493 126.503C273.652 126.503 273.782 126.632 273.782 126.792C273.782 126.953 273.652 127.083 273.493 127.083C273.332 127.083 273.203 126.953 273.203 126.792Z" fill="#F99746"/>
<path d="M245.888 125.874C245.888 125.714 246.018 125.584 246.178 125.584C246.338 125.584 246.468 125.714 246.468 125.874C246.468 126.034 246.338 126.164 246.178 126.164C246.018 126.164 245.888 126.034 245.888 125.874Z" fill="#F99746"/>
<path d="M243.969 122.137C243.969 122.137 245.659 120.954 247.982 121.715C250.306 122.475 250.665 125.038 250.665 125.038C250.665 125.038 250.27 125.553 249.63 125.038C248.99 124.523 248.985 121.935 244.787 122.775C244.787 122.775 243.863 122.792 243.969 122.137Z" fill="#F99746"/>
<path d="M260.032 77.8589C260.032 77.8589 257.114 82.5514 257.114 83.825C257.114 85.0987 258.044 86.5634 258.044 86.5634L260.996 84.1118L262.466 81.4757L260.032 77.8589Z" fill="#829CE8"/>
<path d="M262.338 84.7418C262.338 84.7418 261.353 86.5173 259.593 86.2011C259.593 86.2011 259.074 85.4192 258.946 84.793C258.93 84.7159 258.914 84.6415 258.899 84.5706C258.752 83.8662 258.65 83.4745 258.65 83.4745C258.65 83.4745 258.651 83.4743 258.652 83.4738C258.72 83.4281 260.95 81.9562 260.964 82.0391C261.298 83.9576 262.338 84.7418 262.338 84.7418Z" fill="#ED975D"/>
<path d="M257.884 83.5831C257.884 83.5831 260.591 84.4895 261.13 82.7947C261.669 81.0998 262.381 80.0753 260.675 79.4249C258.969 78.7744 258.426 79.3141 258.108 79.8362C257.791 80.358 257.194 83.3037 257.884 83.5831Z" fill="#FFB27D"/>
<path d="M254.813 126.939H259.275C259.317 126.93 259.35 126.921 259.37 126.911C259.667 126.762 259.574 125.622 259.538 125.269C259.531 125.204 259.526 125.166 259.526 125.166C259.526 125.166 257.958 123.911 257.742 124.872C257.735 124.902 257.727 124.931 257.719 124.96V124.96C257.446 125.859 256.229 126.268 255.526 126.381C254.988 126.469 254.849 126.782 254.813 126.939Z" fill="#A9453D"/>
<path d="M263.547 126.939H268.008C268.051 126.93 268.083 126.921 268.103 126.911C268.401 126.762 268.307 125.622 268.272 125.269C268.265 125.204 268.26 125.166 268.26 125.166C268.26 125.166 266.691 123.911 266.475 124.872C266.468 124.902 266.461 124.931 266.452 124.96V124.96C266.18 125.859 264.962 126.268 264.259 126.381C263.722 126.469 263.582 126.782 263.547 126.939Z" fill="#A9453D"/>
<path d="M255.712 101.211C255.712 101.211 255.951 104.184 256.231 107.757C256.611 112.611 257.069 118.573 257.114 119.703C257.193 121.664 257.719 124.96 257.719 124.96C257.719 124.96 258.036 125.48 259.526 125.166C259.526 125.166 261.071 120.754 261.45 116.015C261.456 115.937 261.462 115.859 261.468 115.781C261.821 110.957 262.37 100.799 262.37 100.799L255.712 101.211Z" fill="#F99746"/>
<path d="M255.712 101.211C255.712 101.211 255.951 104.184 256.231 107.757L261.45 116.015C261.456 115.937 261.462 115.859 261.468 115.781C261.821 110.957 262.37 100.799 262.37 100.799L255.712 101.211Z" fill="#ED7D2B"/>
<path d="M256.801 101.564C256.801 101.564 259.726 112.77 262.55 117.829C265.374 122.888 266.383 125.14 266.383 125.14C266.383 125.14 268.113 125.607 268.26 125.166C268.26 125.166 266.781 113.124 265.635 110.308C265.041 108.85 264.764 104.368 264.705 102.957C264.646 101.545 263.654 99.6228 263.654 99.6228L256.801 101.564Z" fill="#F99746"/>
<path d="M255.837 105.93C261.266 108.616 267.21 107.747 267.198 107.562C267.188 107.36 264.936 95.3808 264.156 91.8869C263.43 88.6337 262.448 85.783 261.539 85.1319C261.42 85.0501 260.705 85.4176 260.047 85.7584C259.44 86.0729 258.827 86.1186 258.245 86.0134C258.245 86.0134 257.95 86.4058 257.776 86.8308C257.412 87.7219 255.505 93.8066 255.48 94.8596C255.479 94.9223 255.477 94.9849 255.476 95.0474C255.469 95.3521 255.464 95.6578 255.459 95.9613C255.454 96.3082 255.776 105.9 255.837 105.93Z" fill="#9DB0F4"/>
<path d="M255.634 101.361C260.974 98.3659 260.445 91.4719 260.445 91.4719L255.459 95.9614C255.454 96.3082 255.451 96.6529 255.45 96.9935C255.449 97.2492 255.451 97.5031 255.453 97.7521L255.454 97.7854C255.447 97.8781 255.45 97.9792 255.452 98.0715C255.454 98.4893 255.629 100.98 255.634 101.361Z" fill="#7A96E5"/>
<path d="M250.249 99.3052C249.984 98.8454 250.192 98.6461 250.192 98.6461C250.192 98.6461 254.602 95.4068 254.95 95.0769C255.298 94.7466 257.028 89.3711 257.028 89.3711C257.028 89.3711 257.634 87.1926 258.902 86.9896C260.003 86.8129 260.743 87.378 261.219 88.0284C261.786 88.8035 261.812 89.8491 261.296 90.6595C260.14 92.4783 257.809 96.0877 257.141 96.6957C255.657 98.0499 250.873 99.6784 250.873 99.6784C250.873 99.6784 250.458 99.6662 250.249 99.3052Z" fill="#FFB27D"/>
<path d="M260.992 83.2571C261.028 83.2849 261.606 83.5228 262.942 81.38C263.151 81.0438 263.343 80.2918 262.992 79.5798C262.642 78.8675 261.227 78.2021 260.032 77.8591C258.838 77.5162 258.483 78.1734 258.133 78.8345C257.766 79.5284 256.843 80.0424 256.843 80.0424C257.837 80.725 259.177 80.0039 259.602 80.1821C260.027 80.3603 260.117 81.0643 260.13 81.2884C260.143 81.5123 260.176 81.7005 260.744 81.5541C261.313 81.4077 260.921 82.3569 260.816 82.5353C260.816 82.5351 260.695 83.026 260.992 83.2571Z" fill="#233862"/>
<path d="M260.032 77.8589C260.032 77.8589 261.525 80.4112 261.573 81.5012C261.621 82.5918 258.245 86.0133 258.245 86.0133C258.245 86.0133 261.139 86.7729 262.331 86.0133C262.331 86.0133 265.085 82.1758 265.085 81.4755C265.085 80.7753 263.472 77.9004 260.032 77.8589Z" fill="#9DB0F4"/>
<path d="M257.398 101.106C257.398 101.106 260.019 101.534 261.664 101.295L261.627 103.928L259.531 104.731L257.398 103.548V101.106H257.398Z" fill="#7A96E5"/>
<path d="M250.182 98.646C250.182 98.646 248.492 98.7317 248.154 99.0484C247.816 99.3656 247.151 99.9677 247.653 100.074L248.866 99.8089C249.485 99.9551 249.71 100.291 250.104 100.082C250.499 99.8724 250.93 99.6424 250.93 99.6424L250.182 98.646Z" fill="#FFB27D"/>
<path d="M246.135 100.46C246.135 99.9617 246.538 99.5579 247.036 99.5579C247.534 99.5579 247.938 99.9615 247.938 100.46C247.938 100.957 247.534 101.361 247.036 101.361C246.538 101.361 246.135 100.957 246.135 100.46Z" fill="#F99746"/>
<path d="M270.567 94.1132C270.558 94.245 270.542 94.3608 270.517 94.4561C270.163 95.8096 265.583 96.8313 265.07 96.3417C264.974 96.2501 264.875 96.1173 264.773 95.9502C263.469 93.8061 261.815 85.9997 262.466 86.4621C262.466 86.4621 263.683 86.0822 264.683 85.9871L264.859 85.9732L264.865 85.9727C265.182 85.954 265.465 85.9701 265.666 86.0447C266.518 86.3607 267.198 88.5849 267.198 88.5849C267.198 88.5849 267.9 88.4852 268.525 88.5618C268.602 88.5712 268.678 88.5833 268.751 88.5986C268.752 88.5986 268.752 88.5986 268.752 88.5986C268.943 88.6386 269.118 88.7004 269.247 88.7931C269.782 89.175 270.659 92.6485 270.567 94.1132Z" fill="#F99746"/>
<path d="M263.043 86.3511C263.043 86.3511 261.472 84.8505 258.843 85.3854L258.245 86.0136C258.245 86.0136 260.884 85.3791 262.338 86.7672L263.043 86.3511Z" fill="#F99746"/>
<path d="M258.476 93.4984C258.476 93.4984 260.047 96.2868 264.333 94.9022L264.773 95.95C264.773 95.95 259.676 97.3995 257.955 94.5928L258.476 93.4984Z" fill="#F99746"/>
<path d="M259.041 86.5633C259.041 86.5633 257.953 86.4392 257.551 87.4533C257.265 88.1773 256.624 91.5811 255.178 94.0626C254.598 95.0569 252.389 96.9984 251.47 97.7037C251.47 97.7037 251.805 98.7815 252.525 99.068C252.525 99.068 256.009 99.4217 258.297 96.816C258.952 96.0766 262.846 89.7318 262.043 88.4223C261.241 87.1125 259.041 86.5633 259.041 86.5633Z" fill="#9DB0F4"/>
<path d="M264.865 85.973C264.709 86.123 264.405 86.522 264.506 87.2824C264.642 88.3023 264.97 89.0315 264.973 89.0389L264.86 89.0918C264.856 89.0844 264.521 88.3391 264.383 87.2993C264.293 86.6211 264.507 86.2052 264.683 85.9874L264.865 85.973Z" fill="#ED7D2B"/>
<path d="M269.295 94.1453L269.176 94.1831C269.124 94.0165 267.908 90.0917 267.991 89.3679C268.044 88.912 268.316 88.677 268.525 88.5621C268.602 88.5715 268.678 88.5837 268.751 88.5989C268.605 88.6446 268.18 88.8241 268.115 89.3829C268.034 90.0795 269.283 94.1044 269.295 94.1453Z" fill="#ED7D2B"/>
<path d="M263.834 92.4159L264.916 95.4842C264.916 95.4842 266.416 95.529 267.332 94.9023L266.332 91.7496C266.332 91.7496 265.499 92.3883 263.834 92.4159Z" fill="#ED7D2B"/>
<path d="M270.567 94.1132C270.558 94.245 270.542 94.3608 270.517 94.4561C270.163 95.8096 265.583 96.8313 265.07 96.3417C264.974 96.2501 264.875 96.1173 264.773 95.9502C264.814 95.9489 267.414 95.8586 270.567 94.1132Z" fill="#ED7D2B"/>
<path d="M263.834 92.4159L264.152 93.3173L265.583 93.4152L266.611 92.6285L266.332 91.7496C266.332 91.7496 264.719 92.083 263.834 92.4159Z" fill="#EF873A"/>
<path d="M265.368 93.1443C265.368 93.0945 265.408 93.0546 265.457 93.0546C265.507 93.0546 265.547 93.0947 265.547 93.1443C265.547 93.194 265.507 93.2341 265.457 93.2341C265.408 93.2341 265.368 93.194 265.368 93.1443Z" fill="#131375"/>
<path d="M341.107 145.325H206.923V148.699H341.107V145.325Z" fill="#9DB0F4"/>
<path d="M341.107 152.135H206.923V155.509H341.107V152.135Z" fill="#9DB0F4"/>
<path d="M341.107 158.945H266.703V162.319H341.107V158.945Z" fill="#9DB0F4"/>
<path d="M309.192 165.756H251.491V169.13H309.192V165.756Z" fill="#9DB0F4"/>
<path d="M341.107 172.566H266.703V175.94H341.107V172.566Z" fill="#9DB0F4"/>
<path d="M173.51 117.976H137.975V119.661H173.51V117.976Z" fill="#9DB0F4"/>
<path d="M180.847 117.976H176.937V121.886H180.847V117.976Z" fill="#9DB0F4"/>
<path d="M167.566 117.976H151.263V119.661H167.566V117.976Z" fill="#F77D48"/>
<path d="M173.51 108.728H137.975V110.413H173.51V108.728Z" fill="#9DB0F4"/>
<path d="M180.847 108.728H176.937V112.638H180.847V108.728Z" fill="#9DB0F4"/>
<path d="M153.981 108.728H142.626V110.413H153.981V108.728Z" fill="#F77D48"/>
<path d="M173.51 99.4796H137.975V101.165H173.51V99.4796Z" fill="#9DB0F4"/>
<path d="M180.847 99.4796H176.937V103.389H180.847V99.4796Z" fill="#7A96E5"/>
<path d="M166.915 99.4796H155.56V101.165H166.915V99.4796Z" fill="#7A96E5"/>
<path d="M173.51 90.2311H137.975V91.9162H173.51V90.2311Z" fill="#9DB0F4"/>
<path d="M180.847 90.2311H176.937V94.1406H180.847V90.2311Z" fill="#7A96E5"/>
<path d="M159.9 90.2311H142.626V91.9162H159.9V90.2311Z" fill="#7A96E5"/>
<path d="M173.51 80.9829H137.975V82.6681H173.51V80.9829Z" fill="#9DB0F4"/>
<path d="M180.847 80.9829H176.937V84.8927H180.847V80.9829Z" fill="#F77D48"/>
<path d="M169.884 80.9829H154.738V82.6681H169.884V80.9829Z" fill="#F77D48"/>
<path d="M157.432 139.001H153.981V142.452H157.432V139.001Z" fill="#9DB0F4"/>
<path d="M163.6 139.001H160.149V142.452H163.6V139.001Z" fill="#9DB0F4"/>
<path d="M183.981 139.446H165.983V140.727H183.981V139.446Z" fill="#9DB0F4"/>
<path d="M148.828 138.569L151.659 140.726L148.828 142.378V138.569Z" fill="#9DB0F4"/>
<path d="M157.432 145.605H153.981V149.056H157.432V145.605Z" fill="#7A96E5"/>
<path d="M163.6 145.605H160.149V149.056H163.6V145.605Z" fill="#9DB0F4"/>
<path d="M183.981 146.05H165.983V147.33H183.981V146.05Z" fill="#9DB0F4"/>
<path d="M148.828 145.173L151.659 147.33L148.828 148.982V145.173Z" fill="#9DB0F4"/>
<path d="M157.432 152.208H153.981V155.659H157.432V152.208Z" fill="#F77D48"/>
<path d="M163.6 152.208H160.149V155.659H163.6V152.208Z" fill="#9DB0F4"/>
<path d="M183.981 152.653H165.983V153.934H183.981V152.653Z" fill="#9DB0F4"/>
<path d="M148.828 151.777L151.659 153.934L148.828 155.586V151.777Z" fill="#9DB0F4"/>
<path d="M157.432 158.812H153.981V162.263H157.432V158.812Z" fill="#F77D48"/>
<path d="M163.6 158.812H160.149V162.263H163.6V158.812Z" fill="#9DB0F4"/>
<path d="M183.981 159.257H165.983V160.538H183.981V159.257Z" fill="#9DB0F4"/>
<path d="M148.828 158.381L151.659 160.538L148.828 162.189V158.381Z" fill="#9DB0F4"/>
<path d="M157.432 165.416H153.981V168.867H157.432V165.416Z" fill="#7A96E5"/>
<path d="M163.6 165.416H160.149V168.867H163.6V165.416Z" fill="#9DB0F4"/>
<path d="M183.981 165.861H165.983V167.141H183.981V165.861Z" fill="#9DB0F4"/>
<path d="M148.828 164.984L151.659 167.141L148.828 168.793V164.984Z" fill="#9DB0F4"/>
<path d="M157.432 172.02H153.981V175.47H157.432V172.02Z" fill="#7A96E5"/>
<path d="M163.6 172.02H160.149V175.47H163.6V172.02Z" fill="#9DB0F4"/>
<path d="M183.981 172.464H165.983V173.745H183.981V172.464Z" fill="#9DB0F4"/>
<path d="M148.828 171.588L151.659 173.745L148.828 175.397V171.588Z" fill="#9DB0F4"/>
<g opacity="0.5">
<g opacity="0.5">
<path opacity="0.5" d="M137.437 140.474C137.437 140.474 138.348 139.298 139.582 139.298C140.841 139.298 141.619 140.474 141.619 140.474C141.619 140.474 140.962 141.65 139.582 141.65C138.127 141.65 137.437 140.474 137.437 140.474Z" fill="#DDE7FE"/>
</g>
<g opacity="0.5">
<path opacity="0.5" d="M138.714 140.474C138.714 140.024 139.079 139.66 139.528 139.66C139.978 139.66 140.343 140.024 140.343 140.474C140.343 140.923 139.978 141.288 139.528 141.288C139.079 141.288 138.714 140.923 138.714 140.474Z" fill="#15156D"/>
</g>
<g opacity="0.5">
<path opacity="0.5" d="M139.031 140.474C139.031 140.199 139.253 139.977 139.528 139.977C139.803 139.977 140.026 140.199 140.026 140.474C140.026 140.749 139.803 140.971 139.528 140.971C139.253 140.971 139.031 140.748 139.031 140.474Z" fill="#DDE7FE"/>
</g>
</g>
<g opacity="0.5">
<g opacity="0.5">
<path opacity="0.5" d="M137.437 147.077C137.437 147.077 138.348 145.901 139.582 145.901C140.841 145.901 141.619 147.077 141.619 147.077C141.619 147.077 140.962 148.254 139.582 148.254C138.127 148.254 137.437 147.077 137.437 147.077Z" fill="#DDE7FE"/>
</g>
<g opacity="0.5">
<path opacity="0.5" d="M138.714 147.078C138.714 146.628 139.079 146.263 139.528 146.263C139.978 146.263 140.343 146.628 140.343 147.078C140.343 147.527 139.978 147.892 139.528 147.892C139.079 147.892 138.714 147.527 138.714 147.078Z" fill="#15156D"/>
</g>
<g opacity="0.5">
<path opacity="0.5" d="M139.031 147.077C139.031 146.803 139.253 146.58 139.528 146.58C139.803 146.58 140.026 146.803 140.026 147.077C140.026 147.352 139.803 147.575 139.528 147.575C139.253 147.575 139.031 147.352 139.031 147.077Z" fill="#DDE7FE"/>
</g>
</g>
<g opacity="0.5">
<g opacity="0.5">
<path opacity="0.5" d="M137.437 153.681C137.437 153.681 138.348 152.505 139.582 152.505C140.841 152.505 141.619 153.681 141.619 153.681C141.619 153.681 140.962 154.857 139.582 154.857C138.127 154.857 137.437 153.681 137.437 153.681Z" fill="#DDE7FE"/>
</g>
<g opacity="0.5">
<path opacity="0.5" d="M138.714 153.681C138.714 153.231 139.079 152.867 139.528 152.867C139.978 152.867 140.343 153.231 140.343 153.681C140.343 154.131 139.978 154.495 139.528 154.495C139.079 154.495 138.714 154.131 138.714 153.681Z" fill="#15156D"/>
</g>
<g opacity="0.5">
<path opacity="0.5" d="M139.031 153.681C139.031 153.406 139.253 153.184 139.528 153.184C139.803 153.184 140.026 153.406 140.026 153.681C140.026 153.956 139.803 154.178 139.528 154.178C139.253 154.178 139.031 153.956 139.031 153.681Z" fill="#DDE7FE"/>
</g>
</g>
<g opacity="0.5">
<g opacity="0.5">
<path opacity="0.5" d="M137.437 160.285C137.437 160.285 138.348 159.109 139.582 159.109C140.841 159.109 141.619 160.285 141.619 160.285C141.619 160.285 140.962 161.461 139.582 161.461C138.127 161.461 137.437 160.285 137.437 160.285Z" fill="#DDE7FE"/>
</g>
<g opacity="0.5">
<path opacity="0.5" d="M138.714 160.285C138.714 159.835 139.079 159.471 139.528 159.471C139.978 159.471 140.343 159.835 140.343 160.285C140.343 160.735 139.978 161.099 139.528 161.099C139.079 161.099 138.714 160.735 138.714 160.285Z" fill="#15156D"/>
</g>
<g opacity="0.5">
<path opacity="0.5" d="M139.031 160.285C139.031 160.01 139.253 159.788 139.528 159.788C139.803 159.788 140.026 160.01 140.026 160.285C140.026 160.56 139.803 160.782 139.528 160.782C139.253 160.782 139.031 160.56 139.031 160.285Z" fill="#DDE7FE"/>
</g>
</g>
<g opacity="0.5">
<g opacity="0.5">
<path opacity="0.5" d="M137.437 166.888C137.437 166.888 138.348 165.712 139.582 165.712C140.841 165.712 141.619 166.888 141.619 166.888C141.619 166.888 140.962 168.065 139.582 168.065C138.127 168.065 137.437 166.888 137.437 166.888Z" fill="#DDE7FE"/>
</g>
<g opacity="0.5">
<path opacity="0.5" d="M138.714 166.888C138.714 166.439 139.079 166.074 139.528 166.074C139.978 166.074 140.343 166.439 140.343 166.888C140.343 167.338 139.978 167.703 139.528 167.703C139.079 167.703 138.714 167.338 138.714 166.888Z" fill="#15156D"/>
</g>
<g opacity="0.5">
<path opacity="0.5" d="M139.031 166.888C139.031 166.614 139.253 166.391 139.528 166.391C139.803 166.391 140.026 166.614 140.026 166.888C140.026 167.163 139.803 167.386 139.528 167.386C139.253 167.386 139.031 167.163 139.031 166.888Z" fill="#DDE7FE"/>
</g>
</g>
<g opacity="0.5">
<g opacity="0.5">
<path opacity="0.5" d="M137.437 173.492C137.437 173.492 138.348 172.316 139.582 172.316C140.841 172.316 141.619 173.492 141.619 173.492C141.619 173.492 140.962 174.668 139.582 174.668C138.127 174.668 137.437 173.492 137.437 173.492Z" fill="#DDE7FE"/>
</g>
<g opacity="0.5">
<path opacity="0.5" d="M138.714 173.492C138.714 173.043 139.079 172.678 139.528 172.678C139.978 172.678 140.343 173.043 140.343 173.492C140.343 173.942 139.978 174.307 139.528 174.307C139.079 174.307 138.714 173.942 138.714 173.492Z" fill="#15156D"/>
</g>
<g opacity="0.5">
<path opacity="0.5" d="M139.031 173.492C139.031 173.218 139.253 172.995 139.528 172.995C139.803 172.995 140.026 173.218 140.026 173.492C140.026 173.767 139.803 173.99 139.528 173.99C139.253 173.99 139.031 173.767 139.031 173.492Z" fill="#DDE7FE"/>
</g>
</g>
<path d="M341.107 165.756H289.981V169.13H341.107V165.756Z" fill="#F99746"/>
<path d="M328.721 158.945H299.016V162.319H328.721V158.945Z" fill="#F99746"/>
<path d="M330.112 145.325H295.733V148.699H330.112V145.325Z" fill="#F99746"/>
<path d="M335.892 152.135H306.187V155.509H335.892V152.135Z" fill="#7A96E5"/>
<path d="M224.643 95.4081C217.619 86.4337 209.802 86.1182 209.723 86.1165L209.729 85.9143C209.808 85.9163 217.72 86.2351 224.803 95.2834L224.643 95.4081Z" fill="#15156D"/>
<path d="M208.816 86.015C208.816 85.5546 209.189 85.1812 209.65 85.1812C210.11 85.1812 210.484 85.5546 210.484 86.015C210.484 86.4757 210.11 86.8493 209.65 86.8493C209.189 86.8493 208.816 86.4757 208.816 86.015Z" fill="#F77D48"/>
<path d="M223.889 95.2617C223.889 94.801 224.262 94.4276 224.723 94.4276C225.184 94.4276 225.557 94.801 225.557 95.2617C225.557 95.7222 225.184 96.0958 224.723 96.0958C224.262 96.0958 223.889 95.7222 223.889 95.2617Z" fill="#F77D48"/>
<path d="M226.745 84.281L226.591 84.1497C226.642 84.0895 231.865 78.126 243.343 78.2868L243.34 78.4889C231.946 78.3344 226.796 84.2216 226.745 84.281Z" fill="#15156D"/>
<path d="M226.097 84.9246C225.738 84.6356 225.681 84.1105 225.97 83.7517C226.259 83.3929 226.784 83.3363 227.143 83.625C227.502 83.914 227.559 84.4391 227.27 84.7979C226.981 85.157 226.455 85.2134 226.097 84.9246Z" fill="#F77D48"/>
<path d="M242.753 78.9845C242.394 78.6956 242.337 78.1705 242.626 77.8116C242.915 77.453 243.44 77.3962 243.799 77.6852C244.158 77.9742 244.215 78.4993 243.926 78.8583C243.637 79.2172 243.112 79.2735 242.753 78.9845Z" fill="#F77D48"/>
<path d="M279.956 84.2584L279.774 84.1024C279.832 84.0349 285.734 77.3439 299.544 78.2318L299.529 78.4711C285.836 77.5924 280.013 84.1918 279.956 84.2584Z" fill="#15156D"/>
<path d="M279.222 84.9786C278.773 84.6174 278.674 83.9972 278.999 83.5934C279.324 83.1897 279.952 83.1551 280.4 83.5163C280.849 83.8775 280.949 84.4977 280.623 84.9016C280.298 85.3055 279.671 85.3401 279.222 84.9786Z" fill="#F77D48"/>
<path d="M298.866 79.0171C298.417 78.6558 298.318 78.0354 298.643 77.6318C298.968 77.2281 299.595 77.1933 300.044 77.5547C300.492 77.916 300.592 78.5364 300.267 78.94C299.942 79.3437 299.315 79.3781 298.866 79.0171Z" fill="#F77D48"/>
<path d="M270.256 87.3857H256.234V87.5879H270.256V87.3857Z" fill="#15156D"/>
<path d="M255.4 87.4862C255.4 87.0258 255.774 86.6523 256.235 86.6523C256.695 86.6523 257.069 87.0258 257.069 87.4862C257.069 87.9471 256.695 88.3207 256.235 88.3207C255.774 88.3207 255.4 87.9473 255.4 87.4862Z" fill="#FA7267"/>
<path d="M269.421 87.4862C269.421 87.0258 269.795 86.6523 270.256 86.6523C270.716 86.6523 271.09 87.0258 271.09 87.4862C271.09 87.9471 270.716 88.3207 270.256 88.3207C269.795 88.3207 269.421 87.9473 269.421 87.4862Z" fill="#FA7267"/>
<path d="M286.601 142.29L285.171 140.86L283.741 142.29L285.171 143.72L286.601 142.29Z" fill="#F77D48"/>
<path d="M248.343 112.859C240.361 112.859 231.94 111.457 225.113 109.922C212.732 107.138 202.78 103.328 202.681 103.29L202.754 103.101C202.852 103.139 212.793 106.944 225.16 109.725C236.566 112.29 252.425 114.483 263.209 110.365C274.038 106.231 285.502 106.828 293.212 108.058C301.564 109.389 307.435 111.728 307.494 111.752L307.418 111.939C307.36 111.916 301.506 109.584 293.175 108.256C285.49 107.032 274.067 106.437 263.281 110.554C258.917 112.221 253.73 112.859 248.343 112.859Z" fill="#15156D"/>
<path d="M264.692 109.718C264.692 109.257 265.065 108.884 265.526 108.884C265.987 108.884 266.36 109.257 266.36 109.718C266.36 110.178 265.987 110.552 265.526 110.552C265.065 110.552 264.692 110.178 264.692 109.718Z" fill="#17152B"/>
<path d="M241.557 112.65C241.557 112.19 241.93 111.816 242.391 111.816C242.851 111.816 243.225 112.19 243.225 112.65C243.225 113.111 242.851 113.484 242.391 113.484C241.93 113.484 241.557 113.111 241.557 112.65Z" fill="#17152B"/>
<path d="M246.919 133.075C245.199 133.075 243.275 132.778 241.354 131.895L241.438 131.711C247.19 134.355 252.98 131.666 253.038 131.639L253.125 131.821C253.085 131.84 250.427 133.075 246.919 133.075Z" fill="#15156D"/>
<path d="M253.605 132.378C253.247 132.668 252.721 132.612 252.432 132.254C252.142 131.895 252.198 131.37 252.556 131.081C252.915 130.791 253.44 130.847 253.73 131.205C254.02 131.564 253.964 132.089 253.605 132.378Z" fill="#F77D48"/>
<path d="M241.92 132.452C241.562 132.741 241.036 132.686 240.747 132.327C240.457 131.969 240.513 131.444 240.871 131.154C241.23 130.865 241.755 130.92 242.045 131.279C242.334 131.637 242.278 132.162 241.92 132.452Z" fill="#F77D48"/>
<path d="M274.491 133.075C272.771 133.075 270.846 132.778 268.926 131.895L269.01 131.711C274.762 134.355 280.552 131.666 280.61 131.639L280.697 131.821C280.657 131.84 277.999 133.075 274.491 133.075Z" fill="#15156D"/>
<path d="M281.177 132.378C280.819 132.668 280.294 132.612 280.004 132.254C279.714 131.895 279.77 131.37 280.129 131.081C280.487 130.791 281.012 130.847 281.302 131.205C281.591 131.564 281.536 132.089 281.177 132.378Z" fill="#F77D48"/>
<path d="M269.492 132.452C269.134 132.741 268.609 132.686 268.319 132.327C268.029 131.969 268.085 131.444 268.443 131.154C268.802 130.865 269.327 130.92 269.617 131.279C269.906 131.637 269.851 132.162 269.492 132.452Z" fill="#F77D48"/>
<g opacity="0.3">
<path opacity="0.3" d="M310.81 102.328V130.895L300.597 129.571C300.597 129.571 299.686 123.549 304.025 121.637C308.06 119.861 305.346 104.367 310.81 102.328Z" fill="#9DB0F4"/>
</g>
<path d="M306.127 111.846C306.127 111.385 306.501 111.011 306.962 111.011C307.422 111.011 307.796 111.385 307.796 111.846C307.796 112.306 307.422 112.68 306.962 112.68C306.501 112.68 306.127 112.306 306.127 111.846Z" fill="#F77D48"/>
<path d="M202.089 103.196C202.089 102.735 202.463 102.361 202.923 102.361C203.384 102.361 203.757 102.735 203.757 103.196C203.757 103.656 203.384 104.03 202.923 104.03C202.463 104.03 202.089 103.656 202.089 103.196Z" fill="#F77D48"/>
<g opacity="0.1">
<path opacity="0.1" d="M373.959 73.4731H320.089V134.642H373.959V73.4731Z" fill="#DDE7FE"/>
</g>
<path d="M351.072 77.1553H324.777V77.9058H351.072V77.1553Z" fill="#9DB0F4"/>
<path d="M345.123 79.0227H324.777V79.7735H345.123V79.0227Z" fill="#9DB0F4"/>
<path d="M366.345 77.5909H364.921V79.0152H366.345V77.5909Z" fill="#9DB0F4"/>
<path d="M351.072 85.4529H324.777V86.2034H351.072V85.4529Z" fill="#9DB0F4"/>
<path d="M345.123 87.3202H324.777V88.0707H345.123V87.3202Z" fill="#9DB0F4"/>
<path d="M366.345 85.8885H364.921V87.3126H366.345V85.8885Z" fill="#9DB0F4"/>
<path d="M351.072 93.7506H324.777V94.5011H351.072V93.7506Z" fill="#9DB0F4"/>
<path d="M345.123 95.6177H324.777V96.3682H345.123V95.6177Z" fill="#9DB0F4"/>
<path d="M366.345 94.1862H364.921V95.6102H366.345V94.1862Z" fill="#9DB0F4"/>
<path d="M351.072 102.048H324.777V102.799H351.072V102.048Z" fill="#9DB0F4"/>
<path d="M345.123 103.915H324.777V104.666H345.123V103.915Z" fill="#9DB0F4"/>
<path d="M366.345 102.484H364.921V103.907H366.345V102.484Z" fill="#9DB0F4"/>
<path d="M351.072 110.345H324.777V111.096H351.072V110.345Z" fill="#9DB0F4"/>
<path d="M345.123 112.213H324.777V112.963H345.123V112.213Z" fill="#9DB0F4"/>
<path d="M366.345 110.781H364.921V112.205H366.345V110.781Z" fill="#9DB0F4"/>
<path d="M366.345 118.306H364.921V119.73H366.345V118.306Z" fill="#9DB0F4"/>
<path d="M351.072 118.642H324.777V119.393H351.072V118.642Z" fill="#9DB0F4"/>
<path d="M345.123 120.51H324.777V121.261H345.123V120.51Z" fill="#9DB0F4"/>
<path d="M351.072 126.94H324.777V127.691H351.072V126.94Z" fill="#9DB0F4"/>
<path d="M345.123 128.808H324.777V129.558H345.123V128.808Z" fill="#9DB0F4"/>
<path d="M366.345 127.376H364.921V128.8H366.345V127.376Z" fill="#9DB0F4"/>
<path d="M342.885 256.732C342.885 256.732 339.125 266.023 340.45 266.994C341.775 267.964 346.323 264.018 347.53 259.852C348.736 255.687 342.885 256.732 342.885 256.732Z" fill="#EA9963"/>
<path d="M419.716 319.417C403.08 319.415 385.714 319.415 369.298 319.411C368.666 317.884 367.992 316.28 367.291 314.647C362.738 304.043 357.026 292.106 353.848 290.685C347.999 288.071 344.477 290.359 337.199 281.864C329.921 273.369 325.291 270.48 328.151 268.519C331.011 266.559 340.451 273.927 343.069 273.608C345.172 273.353 346.266 268.256 346.094 262.875C346.05 261.467 345.917 260.043 345.692 258.678V258.676C345.582 257.987 345.444 257.316 345.287 256.671C345.037 255.662 344.729 254.718 344.361 253.877C343.645 252.244 343.71 251.125 344.255 250.377C345.888 248.128 351.853 249.211 354.106 249.746C355.111 249.986 358.22 248.101 360.398 249.174C363.778 250.838 365.746 248.918 367.99 250.362C369.577 251.383 372.845 251.862 373.97 253.334C376.113 256.136 376.643 262.068 378.731 267.549C380.664 272.622 381.336 277.945 387.965 286.929C390.918 290.931 400.062 300.218 409.295 309.289C412.875 312.804 416.467 316.288 419.716 319.417Z" fill="#FFB27D"/>
<path d="M344.214 250.362C344.214 250.362 330.335 261.725 332.138 263.25C333.94 264.775 338.516 263.276 346.005 258.479C353.493 253.682 344.214 250.362 344.214 250.362Z" fill="#FFB27D"/>
<path d="M423.876 319.417H419.716C403.08 319.415 385.714 319.415 369.298 319.411H364.394L363.824 318.231C363.824 318.231 364.98 316.667 367.291 314.648C373.357 309.343 387.37 300.89 409.295 309.289C410.271 309.664 411.261 310.069 412.268 310.512L423.876 319.417Z" fill="#2B478B"/>
<path d="M197.043 262.535C197.043 262.535 199.452 272.264 198.003 273.038C196.554 273.812 192.609 269.262 192.003 264.968C191.398 260.674 197.043 262.535 197.043 262.535Z" fill="#EA9963"/>
<path d="M199.121 288.218C190.715 295.598 187.552 292.838 181.393 294.598C178.046 295.555 170.704 306.566 164.698 316.421C164.185 317.264 163.681 318.098 163.19 318.917C143.361 318.847 123.493 318.776 105.186 318.709C110.147 315.169 117.02 310.225 123.867 305.183C134.29 297.508 144.659 289.604 148.15 286.057C155.981 278.101 157.397 272.928 160.029 268.177C162.833 263.114 162.75 257.155 166.62 257.215C168.528 257.245 170.21 254.755 171.97 253.948C174.395 252.837 176.712 255.308 180.294 254.139C182.603 253.386 185.767 255.425 186.794 255.329C188.772 255.148 193.559 254.416 195.726 255.533C196.93 256.151 197.326 257.336 195.986 259.502C195.503 260.282 195.065 261.174 194.676 262.137C194.455 262.684 194.249 263.252 194.06 263.838C193.613 265.223 193.255 266.698 192.997 268.163C192.065 273.465 192.431 278.665 194.476 279.216C197.022 279.902 207.562 272.83 210.116 275.175C212.67 277.519 207.526 280.838 199.121 288.218Z" fill="#FFB27D"/>
<path d="M195.504 255.466C195.504 255.466 216.464 261.711 215.375 263.806C214.285 265.9 203.316 265.542 194.568 263.942C185.82 262.343 195.504 255.466 195.504 255.466Z" fill="#FFB27D"/>
<path d="M166.65 318.93C165.497 318.926 164.343 318.922 163.191 318.917C143.362 318.847 123.493 318.776 105.187 318.709C102.818 318.701 100.476 318.693 98.1625 318.684L120.756 305.971C121.814 305.676 122.85 305.414 123.868 305.183C146.767 299.962 159.446 310.314 164.698 316.421C165.533 317.391 166.179 318.254 166.65 318.93Z" fill="#2B478B"/>
<path d="M274.006 303.266C274.006 303.4 274.014 303.535 274.03 303.665C274.081 304.084 274.211 304.478 274.403 304.833C274.554 305.11 274.744 305.362 274.965 305.583C275.559 306.176 276.377 306.543 277.283 306.543H323.375C325.185 306.543 326.653 305.075 326.653 303.266C326.653 302.36 326.286 301.541 325.693 300.948C325.099 300.354 324.28 299.988 323.375 299.988H277.283C275.473 299.988 274.006 301.455 274.006 303.266Z" fill="#2B478B"/>
<path d="M277.521 299.395H293.325C293.601 299.395 293.828 299.168 293.828 298.892C293.828 298.615 293.601 298.388 293.325 298.388H277.521C277.245 298.388 277.018 298.615 277.018 298.892C277.018 299.168 277.245 299.395 277.521 299.395Z" fill="#2B478B"/>
<path d="M278.394 299.988H280.107V299.395H278.394V299.988Z" fill="#233862"/>
<path d="M274.403 304.833C274.554 305.11 274.744 305.362 274.965 305.583C275.559 306.176 276.377 306.543 277.283 306.543H287.046V304.833H274.403Z" fill="#233862"/>
<path d="M332.754 302.305V304.225C332.754 304.436 332.726 304.64 332.673 304.833C332.407 305.819 331.507 306.543 330.437 306.543H282.424C281.355 306.543 280.455 305.819 280.188 304.833C280.136 304.64 280.108 304.436 280.108 304.225V302.305C280.108 301.025 281.144 299.988 282.424 299.988H330.437C331.717 299.988 332.754 301.025 332.754 302.305Z" fill="#F99746"/>
<path d="M332.673 304.833C332.407 305.819 331.507 306.543 330.437 306.543H282.424C281.355 306.543 280.455 305.819 280.189 304.833H332.673Z" fill="#EF873A"/>
<path d="M327.985 303.278C327.985 304.296 328.356 305.205 328.939 305.808C328.952 305.822 328.965 305.835 328.978 305.848C329.429 306.297 330 306.566 330.623 306.566C331.595 306.566 334.004 305.1 335.497 304.126C336.241 303.641 336.757 303.278 336.757 303.278C336.757 303.278 336.241 302.915 335.497 302.429C334.004 301.454 331.595 299.988 330.623 299.988C330.341 299.988 330.071 300.043 329.816 300.144C329.387 300.317 329.006 300.622 328.705 301.021C328.373 301.46 328.137 302.012 328.037 302.625C328.037 302.632 328.035 302.639 328.035 302.647C328.002 302.849 327.985 303.061 327.985 303.278Z" fill="#8C9DF4"/>
<path d="M327.985 303.277C327.985 304.296 328.356 305.205 328.939 305.808L336.329 303.266L328.034 302.646C328.002 302.849 327.985 303.061 327.985 303.277Z" fill="#6980E2"/>
<path d="M328.704 301.021L336.076 303.034L329.815 300.144C329.387 300.316 329.005 300.622 328.704 301.021Z" fill="#9FB1FF"/>
<path d="M335.016 303.278C335.016 303.669 335.216 304.003 335.497 304.126C336.24 303.64 336.757 303.278 336.757 303.278C336.757 303.278 336.24 302.915 335.497 302.429C335.216 302.551 335.016 302.885 335.016 303.278Z" fill="#182D4C"/>
<path d="M43.087 294.605C45.0141 294.609 47.0246 294.386 49.0758 293.919C56.8489 292.147 65.1471 286.871 71.2382 277.144C71.2382 277.144 69.9639 270.61 66.298 265.494L66.2952 265.495C63.7525 261.946 59.3603 257.734 54.119 257.707C50.7418 257.69 48.3527 258.918 46.4854 260.517C43.3074 263.23 41.634 267.011 39.1718 267.557C36.7442 268.096 34.117 269.391 31.8992 271.24C31.536 271.542 31.1832 271.858 30.8466 272.191L30.8455 272.193C30.7039 272.329 30.5668 272.467 30.4308 272.61C30.4266 272.612 30.4245 272.615 30.4223 272.619C27.4385 275.748 25.6808 280.004 27.1701 284.698C27.515 285.785 28.0501 286.916 28.8196 288.078C31.556 292.224 36.8739 294.594 43.087 294.605Z" fill="#ED7D2B"/>
<path d="M51.5994 260.428C51.5994 260.428 56.1446 258.839 58.2906 261.589C60.4364 264.339 57.5442 266.042 55.1205 265.603C52.6966 265.165 49.3276 261.931 51.5994 260.428Z" fill="#FFB583"/>
<path d="M27.1697 284.696C27.5144 285.785 28.1599 286.851 28.8199 288.078C33.4819 296.746 40.0048 300.386 44.9622 301.575C50.4419 302.89 60.701 300.669 64.7805 298.033C71.4773 293.707 73.5194 286.002 71.2373 277.143C71.2373 277.143 69.9628 270.61 66.2979 265.494L66.2957 265.495C66.2957 265.495 63.3804 280.48 46.2987 285.429C38.5397 287.677 31.9995 286.572 27.1697 284.696Z" fill="#EA6C2D"/>
<path d="M33.7889 263.229C33.8753 260.503 36.8043 259.561 39.1936 257.822C41.5849 256.082 44.4201 251.607 44.4201 251.607C44.4201 251.607 40.6041 251.754 36.0553 253.084C31.5064 254.414 33.7889 263.229 33.7889 263.229Z" fill="#A8D29F"/>
<path d="M33.7889 263.229C33.452 260.4 34.7727 256.409 36.5286 255.173C38.2844 253.937 44.4201 251.607 44.4201 251.607C44.4201 251.607 40.6041 251.754 36.0553 253.084C31.5064 254.414 33.7889 263.229 33.7889 263.229Z" fill="#82B378"/>
<path d="M39.1719 267.557C36.7442 268.096 34.1171 269.391 31.8992 271.24C35.8993 268.242 42.2876 269.262 42.6656 267.396C43.069 265.393 46.359 260.695 46.4856 260.517C43.3077 263.23 41.6341 267.011 39.1719 267.557Z" fill="#EA6C2D"/>
<path d="M30.4308 272.61C30.5458 272.508 30.6834 272.37 30.8465 272.193C30.7043 272.33 30.5669 272.467 30.4308 272.61Z" fill="#95C38B"/>
<path d="M42.387 267.611C40.4016 264.559 36.4981 263.027 33.5735 262.279C31.246 261.683 27.8737 261.239 26.2584 261.047C25.9172 261.006 25.7014 261.402 25.9183 261.668L26.4928 262.374C27.0684 263.082 27.9227 263.504 28.8342 263.527C31.6364 263.596 37.9291 264.161 41.1103 267.753C41.4681 268.157 42.7439 268.155 42.387 267.611Z" fill="#82B378"/>
<path d="M79.6079 208.485L76.3766 209.004L82.4947 247.089L85.7259 246.57L79.6079 208.485Z" fill="#B5453C"/>
<path d="M76.9245 202.045L76.3857 209.01L79.617 208.491L76.9245 202.045Z" fill="#EFCBAB"/>
<path d="M114.639 212.304L111.421 211.706L104.377 249.634L107.595 250.231L114.639 212.304Z" fill="#B5453C"/>
<path d="M114.259 205.328L111.41 211.707L114.628 212.304L114.259 205.328Z" fill="#EFCBAB"/>
<path d="M110.543 201.189L107.325 200.591L100.277 238.519L103.495 239.117L110.543 201.189Z" fill="#B5453C"/>
<path d="M110.18 194.204L107.33 200.583L110.548 201.18L110.18 194.204Z" fill="#EFCBAB"/>
<path d="M114.281 224.571H88.5017V261.723H114.281V224.571Z" fill="#ED7D2B"/>
<path d="M101.392 224.571H75.6121V261.723H101.392V224.571Z" fill="#F99746"/>
<path d="M372.01 206.244L341.391 200.422L336.145 228.01L366.764 233.832L372.01 206.244Z" fill="#A8D29F"/>
<path d="M369.767 208.544L339.148 202.722L338.392 206.697L369.011 212.519L369.767 208.544Z" fill="#82B378"/>
<path d="M165.864 196.132L135.553 203.388L142.091 230.698L172.401 223.443L165.864 196.132Z" fill="#8C9DF4"/>
<path d="M165.866 196.13L135.556 203.386L136.993 209.391L167.304 202.135L165.866 196.13Z" fill="#6980E2"/>
<path d="M388.781 179.277L358.081 184.653L362.925 212.315L393.625 206.938L388.781 179.277Z" fill="#699DEE"/>
<path d="M388.781 179.276L358.081 184.652L359.146 190.735L389.846 185.359L388.781 179.276Z" fill="#548EE2"/>
</svg>
