<svg width="567" height="420" viewBox="0 0 567 420" fill="none" xmlns="http://www.w3.org/2000/svg">
<path d="M144.21 81.8547C48.3328 53.9915 49.596 139.894 74.4404 203.058C108.453 289.53 24.0899 279.697 34.4367 334.018C42.8586 378.232 113.602 440.975 208.769 412.341C374.282 362.54 389.417 443.08 485.474 376.969C571.329 317.879 472.793 260.748 485.474 169.863C497.972 80.2862 388.621 42.2723 332.195 72.5909C275.769 102.91 251.921 113.157 144.21 81.8547Z" fill="#C5D7FF"/>
<path d="M474.824 359.663H94.9715V373.889H474.824V359.663Z" fill="#4779F6"/>
<path d="M426.573 309.298H143.221L94.9715 359.663H474.824L426.573 309.298Z" fill="#072BDB"/>
<path d="M286.613 366.834C375.854 366.834 448.199 360.063 448.199 351.71C448.199 343.357 375.854 336.585 286.613 336.585C197.372 336.585 125.028 343.357 125.028 351.71C125.028 360.063 197.372 366.834 286.613 366.834Z" fill="#0024A8"/>
<path d="M255.064 289.388L249.022 331.307H320.773L313.975 289.388H255.064Z" fill="#054DDD"/>
<path d="M345.697 337.349H224.097V340.37H345.697V337.349Z" fill="#054DDD"/>
<path d="M249.022 331.307L224.097 337.349H345.697L320.773 331.307H249.022Z" fill="#4779F6"/>
<path d="M425.074 267.804H144.722V122.411C144.722 115.999 149.92 110.8 156.333 110.8H413.462C419.875 110.8 425.074 115.999 425.074 122.411V267.804Z" fill="#130751"/>
<path d="M413.511 294.676H156.284C149.898 294.676 144.722 289.499 144.722 283.113V267.804H425.074V283.113C425.074 289.499 419.897 294.676 413.511 294.676Z" fill="#4779F6"/>
<path d="M414.729 119.864H155.065V258.08H414.729V119.864Z" fill="#B6CEFF"/>
<path d="M290.373 280.172C290.373 283.196 287.922 285.648 284.897 285.648C281.873 285.648 279.421 283.196 279.421 280.172C279.421 277.147 281.873 274.696 284.897 274.696C287.922 274.696 290.373 277.147 290.373 280.172Z" fill="#130751"/>
<path d="M287.95 135.64H196.003V242.965H287.95V135.64Z" fill="#4779F6"/>
<path d="M274.662 150.275H209.292V156.129H274.662V150.275Z" fill="#E4EAFE"/>
<path d="M274.662 161.007H209.292V166.861H274.662V161.007Z" fill="#E4EAFE"/>
<path d="M274.662 171.739H209.292V177.594H274.662V171.739Z" fill="#E4EAFE"/>
<path d="M274.662 182.472H209.292V188.326H274.662V182.472Z" fill="#E4EAFE"/>
<path d="M274.662 193.205H209.292V199.059H274.662V193.205Z" fill="#E4EAFE"/>
<path d="M274.662 203.938H209.292V209.792H274.662V203.938Z" fill="#E4EAFE"/>
<path d="M274.662 214.67H209.292V220.524H274.662V214.67Z" fill="#E4EAFE"/>
<path d="M274.662 225.402H209.292V231.256H274.662V225.402Z" fill="#E4EAFE"/>
<path d="M349.861 174.569V165.216H344.041C343.549 163.091 342.726 161.091 341.624 159.281L345.771 155.133L339.158 148.52L335.042 152.636C333.242 151.513 331.254 150.666 329.135 150.151V144.281H319.783V150.103C317.656 150.593 315.657 151.416 313.846 152.52L309.698 148.372L303.085 154.985L307.2 159.1C306.077 160.9 305.23 162.888 304.716 165.007H298.847V174.359H304.667C305.159 176.485 305.982 178.485 307.086 180.296L302.938 184.443L309.551 191.056L313.667 186.94C315.466 188.063 317.454 188.912 319.573 189.425V195.295H328.926V189.474C331.052 188.982 333.052 188.16 334.862 187.056L339.009 191.204L345.622 184.591L341.508 180.475C342.631 178.676 343.478 176.688 343.992 174.569H349.861ZM324.354 178.776C319.39 178.776 315.366 174.752 315.366 169.789C315.366 164.823 319.39 160.799 324.354 160.799C329.318 160.799 333.343 164.823 333.343 169.789C333.343 174.752 329.319 178.776 324.354 178.776Z" fill="#130751"/>
<path d="M384.744 203.251V195.888H380.162C379.775 194.215 379.128 192.64 378.259 191.215L381.524 187.95L376.318 182.743L373.078 185.982C371.661 185.099 370.095 184.431 368.427 184.027V179.406H361.065V183.989C359.39 184.375 357.817 185.023 356.391 185.892L353.125 182.627L347.919 187.833L351.159 191.072C350.275 192.489 349.607 194.055 349.203 195.723H344.583V203.086H349.164C349.551 204.76 350.2 206.334 351.068 207.759L347.803 211.025L353.01 216.232L356.25 212.991C357.667 213.875 359.232 214.544 360.9 214.947V219.568H368.264V214.986C369.937 214.598 371.511 213.951 372.937 213.083L376.203 216.348L381.409 211.141L378.169 207.901C379.054 206.484 379.721 204.92 380.125 203.251H384.744ZM364.663 206.564C360.754 206.564 357.587 203.396 357.587 199.488C357.587 195.579 360.755 192.411 364.663 192.411C368.571 192.411 371.739 195.579 371.739 199.488C371.739 203.396 368.571 206.564 364.663 206.564Z" fill="#130751"/>
<path d="M344.435 220.288V215.063H341.184C340.91 213.876 340.45 212.759 339.834 211.748L342.151 209.431L338.457 205.737L336.159 208.036C335.154 207.409 334.042 206.935 332.859 206.648V203.369H327.634V206.621C326.446 206.894 325.329 207.354 324.319 207.971L322.002 205.654L318.308 209.348L320.607 211.646C319.98 212.651 319.506 213.762 319.219 214.946H315.941V220.171H319.191C319.466 221.358 319.926 222.475 320.543 223.486L318.226 225.803L321.919 229.497L324.218 227.198C325.223 227.826 326.334 228.299 327.517 228.586V231.864H332.742V228.613C333.929 228.338 335.046 227.878 336.057 227.262L338.374 229.579L342.068 225.886L339.769 223.587C340.396 222.582 340.87 221.471 341.157 220.288H344.435ZM330.188 222.638C327.416 222.638 325.167 220.389 325.167 217.617C325.167 214.844 327.416 212.596 330.188 212.596C332.961 212.596 335.21 214.845 335.21 217.617C335.21 220.39 332.961 222.638 330.188 222.638Z" fill="#130751"/>
<path opacity="0.24" d="M278.292 119.864L222.466 258.08H253.367L308.692 119.864H278.292Z" fill="white"/>
<path opacity="0.24" d="M327.915 119.864L275.791 258.08H288.212L341.238 119.864H327.915Z" fill="white"/>
<path d="M417.317 101.167L420.152 101.174C436.009 100.509 448.409 87.5869 448.409 71.6971C448.409 55.8073 436.007 42.8849 420.15 42.2179L417.342 42.2095C417.334 42.2148 417.325 42.2201 417.315 42.2274C401.643 43.0579 389.383 55.9772 389.383 71.6981C389.383 87.4159 401.643 100.336 417.317 101.167ZM399.495 90.7758C401.366 89.4156 403.393 88.2516 405.531 87.3051C407.56 91.5472 410.382 95.2943 413.933 98.4643C408.482 97.4512 403.415 94.7593 399.495 90.7758ZM417.756 98.6489C413.438 95.4051 409.96 91.2032 407.655 86.4514C410.893 85.2748 414.285 84.6005 417.756 84.4422V98.6489ZM417.756 82.1619C413.964 82.3233 410.26 83.0631 406.733 84.3589C405.389 81.0096 404.597 77.465 404.378 73.8065L417.756 73.8012V82.1619ZM417.756 71.5166L404.305 71.5251C404.323 67.7758 404.94 64.1067 406.142 60.6076C409.848 62.067 413.75 62.8932 417.755 63.0673V71.5166H417.756ZM423.469 98.536C427.185 95.2405 430.101 91.3308 432.154 86.8957C434.452 87.8285 436.633 89.0114 438.648 90.4191C434.581 94.7086 429.25 97.5525 423.469 98.536ZM440.157 88.6927C437.952 87.1278 435.559 85.8183 433.034 84.7926C434.386 81.2945 435.178 77.598 435.39 73.7917L446.042 73.7864C445.626 79.261 443.598 84.399 440.157 88.6927ZM441.009 55.8242C444.322 60.4219 446.087 65.831 446.127 71.5018L435.459 71.5092C435.44 67.6228 434.812 63.8049 433.592 60.1528C436.222 59.0152 438.713 57.5611 441.009 55.8242ZM439.601 54.0292C437.491 55.6205 435.208 56.9575 432.801 58.0096C430.763 53.0109 427.556 48.4966 423.466 44.856C429.75 45.9187 435.422 49.1361 439.601 54.0292ZM420.038 44.9816C424.794 48.638 428.457 53.414 430.68 58.8538C427.259 60.0768 423.682 60.7363 420.038 60.8134V44.9816ZM420.038 63.0969C423.944 63.0209 427.784 62.3128 431.465 60.9938C432.583 64.38 433.158 67.9151 433.177 71.5092L420.038 71.5166V63.0969ZM420.038 73.7981L433.105 73.7928C432.895 77.3215 432.15 80.751 430.892 83.999C427.399 82.833 423.751 82.2072 420.038 82.1365V73.7981ZM420.038 84.4148C423.443 84.4844 426.79 85.0511 429.999 86.1053C427.752 90.8803 424.324 95.1118 420.038 98.4094V84.4148ZM417.756 44.7442V60.7849C414.039 60.6129 410.412 59.8372 406.962 58.476C409.248 53.0721 412.965 48.3415 417.756 44.7442ZM413.937 44.9267C410.01 48.4428 406.897 52.7788 404.867 57.5674C402.625 56.5006 400.499 55.1815 398.538 53.6398C402.588 49.078 407.998 46.0242 413.937 44.9267ZM397.096 55.4084C399.247 57.1021 401.58 58.5446 404.038 59.7001C402.719 63.4831 402.04 67.4582 402.023 71.5261L391.666 71.5314C391.701 65.6664 393.575 60.1042 397.096 55.4084ZM391.753 73.8139L402.092 73.8086C402.315 77.7647 403.161 81.5973 404.615 85.2168C402.254 86.2604 400.018 87.5562 397.958 89.0747C394.325 84.7103 392.187 79.4499 391.753 73.8139Z" fill="#F7A84C"/>
<path d="M216.528 288.08H135.071V335.502H216.528V288.08Z" fill="#FCA232"/>
<path d="M135.071 335.502L175.8 308.877L216.528 335.502H135.071Z" fill="#FFB564"/>
<path d="M135.071 288.08L175.8 320.776L216.528 288.08H135.071Z" fill="#F98816"/>
<g filter="url(#filter0_d)">
<path d="M544.511 185.186C549.752 162.744 535.807 140.303 513.365 135.062C490.923 129.822 468.482 143.766 463.241 166.208C458.001 188.65 471.945 211.091 494.387 216.332C516.829 221.573 539.27 207.628 544.511 185.186Z" fill="#F7A84C"/>
<path d="M528.769 161.956C528.74 155.183 524.511 150.805 517.797 150.74C508.509 150.647 499.215 150.641 489.928 150.74C483.359 150.81 479.102 155.16 479.001 161.718C478.937 166.354 478.99 170.995 478.99 175.629C478.99 180.166 478.961 184.708 478.996 189.244C479.054 196.168 483.276 200.594 490.13 200.663C499.32 200.763 508.514 200.769 517.703 200.663C524.423 200.588 528.727 196.167 528.763 189.476C528.815 180.306 528.809 171.127 528.769 161.956ZM524.326 189.558C524.278 193.839 521.973 196.21 517.686 196.239C508.498 196.297 499.309 196.297 490.119 196.239C485.815 196.216 483.486 193.851 483.463 189.588C483.422 180.319 483.422 171.047 483.463 161.778C483.48 157.532 485.855 155.092 490.095 155.063C499.284 155 508.474 155 517.662 155.063C521.914 155.092 524.278 157.52 524.326 161.754C524.378 166.39 524.337 171.024 524.337 175.659C524.337 180.289 524.378 184.923 524.326 189.558Z" fill="white"/>
<path d="M503.915 162.642C496.829 162.625 491.013 168.381 490.944 175.503C490.874 182.705 496.451 188.513 503.577 188.653C510.878 188.793 516.768 183.106 516.838 175.839C516.913 168.566 511.134 162.66 503.915 162.642ZM503.751 184.308C499.122 184.215 495.271 180.34 495.224 175.746C495.177 171.006 499.087 167.108 503.891 167.108C508.683 167.108 512.603 171.006 512.563 175.74C512.522 180.439 508.451 184.4 503.751 184.308Z" fill="white"/>
<path d="M520.787 162.334C520.648 164.158 519.48 165.11 517.686 165.023C515.717 164.931 514.712 163.722 514.857 161.782C514.992 159.964 516.176 159.122 517.994 159.017C519.841 159.331 520.933 160.382 520.787 162.334Z" fill="white"/>
</g>
<path d="M258.643 79.2526C273.233 64.6626 273.233 41.0075 258.643 26.4175C244.053 11.8275 220.398 11.8275 205.808 26.4175C191.218 41.0075 191.218 64.6626 205.808 79.2526C220.398 93.8426 244.053 93.8426 258.643 79.2526Z" fill="#F7A84C"/>
<path d="M243.11 37.5424C243.304 37.8979 243.517 38.2411 243.757 38.5697C243.759 38.573 243.794 38.5966 243.813 38.6168C243.746 38.5215 243.438 38.1301 243.11 37.5424ZM243.826 38.6336C243.826 38.6347 243.826 38.6358 243.826 38.637V38.6381C243.827 38.6381 243.827 38.6392 243.829 38.6392C243.959 38.7312 244.088 38.8243 244.218 38.9162C244.088 38.8243 243.956 38.7256 243.826 38.6336ZM250.161 45.4252C250.161 44.4461 250.163 43.4671 250.163 42.4892C249.772 42.4253 249.389 42.3333 249.01 42.2234C248.356 42.0339 247.721 41.7916 247.116 41.4776C246.518 41.1681 245.957 40.8036 245.438 40.373C245.163 40.1453 244.894 39.9143 244.651 39.6553C244.614 39.616 244.577 39.5756 244.54 39.5353C244.507 39.5005 244.476 39.4646 244.443 39.4298C244.221 39.1809 244.01 38.9218 243.827 38.6381C243.738 38.6157 243.612 38.5035 243.552 38.4519C243.128 38.0908 242.736 37.6961 242.38 37.2654C241.832 36.6049 241.379 35.886 241.01 35.1133C240.64 34.3418 240.355 33.5388 240.157 32.7067C240.085 32.405 240.021 32.1011 239.957 31.7972C239.956 31.7949 239.956 31.7927 239.956 31.7904C239.955 31.7848 239.955 31.7781 239.954 31.7714C239.954 31.7703 239.954 31.768 239.953 31.7658C239.953 31.7624 239.953 31.7579 239.953 31.7546C239.953 31.7288 239.956 31.7007 239.957 31.6749H239.955V31.6738C238.775 31.6738 237.595 31.6738 236.416 31.6738C236.33 31.6738 236.245 31.6738 236.16 31.6738C235.874 31.6738 235.593 31.6738 235.323 31.6727C235.212 31.6727 235.104 31.6727 234.997 31.6727C234.731 31.6716 234.483 31.6716 234.26 31.6704C234.128 31.6704 234.104 31.7086 234.104 31.8319C234.107 40.8395 234.107 49.8471 234.107 58.8558C234.107 59.6453 234.111 60.436 234.104 61.2255C234.101 61.6763 234.058 62.1238 234.01 62.5723C233.948 63.1398 233.854 63.7005 233.704 64.2512C233.634 64.5035 233.49 64.7222 233.362 64.9465C233.038 65.5173 232.629 66.022 232.147 66.4683C231.798 66.7935 231.414 67.0717 230.995 67.3004C230.419 67.6144 229.813 67.8421 229.168 67.9621C228.939 68.0047 228.709 68.0339 228.477 68.0574C228.246 68.081 228.016 68.0798 227.786 68.0765C226.982 68.0664 226.209 67.8993 225.463 67.5999C224.925 67.3845 224.428 67.0952 223.981 66.7296C223.495 66.3326 223.088 65.865 222.781 65.2683C222.789 65.2437 222.484 64.6784 222.289 63.9708C222.402 64.3981 222.549 64.813 222.754 65.2067C222.762 65.2235 222.764 65.2381 222.761 65.2571C222.76 65.2627 222.759 65.2672 222.756 65.2739C222.584 65.1865 222.432 65.0698 222.283 64.9521C222.273 64.9442 222.264 64.9375 222.254 64.9296C222.074 64.7883 221.901 64.6403 221.742 64.4732C221.276 63.9809 220.927 63.4179 220.695 62.7787C220.563 62.4131 220.453 62.0419 220.379 61.6617C220.32 61.3634 220.279 61.0606 220.264 60.7544C220.255 60.5705 220.239 60.3889 220.244 60.2049C220.262 59.5522 220.353 58.9119 220.544 58.285C220.741 57.6368 221.039 57.039 221.437 56.494C221.876 55.894 222.423 55.4051 223.061 55.0193C223.647 54.666 224.278 54.4249 224.942 54.2724C225.23 54.2062 225.524 54.1681 225.818 54.1333C226.277 54.0784 226.735 54.075 227.194 54.0918C227.515 54.1031 227.839 54.1176 228.155 54.186C228.286 54.2141 228.311 54.1928 228.311 54.0515C228.311 51.9801 228.312 49.9099 228.312 47.8386C227.838 47.8374 227.361 47.8161 226.888 47.8408C226.336 47.8688 225.788 47.9328 225.24 48.0281C224.625 48.1358 224.02 48.286 223.426 48.4789C223.002 48.6169 222.588 48.7828 222.181 48.969C221.553 49.2561 220.952 49.5892 220.38 49.9761C219.969 50.2542 219.579 50.5581 219.2 50.88C218.819 51.203 218.463 51.554 218.124 51.9173C217.692 52.3805 217.297 52.8773 216.936 53.3988C216.505 54.0212 216.124 54.6728 215.794 55.3535C215.549 55.8604 215.336 56.3807 215.146 56.9123C214.88 57.6592 214.681 58.4229 214.529 59.199C214.457 59.5657 214.413 59.938 214.367 60.3092C214.276 61.0382 214.257 61.7682 214.271 62.5006C214.28 62.9256 214.32 63.3484 214.367 63.7712C214.441 64.4418 214.564 65.1024 214.734 65.755C214.915 66.4447 215.151 67.1165 215.435 67.7714C215.754 68.506 216.144 69.1979 216.587 69.863C216.693 70.0211 216.806 70.1736 216.896 70.3486C216.88 70.3721 217.478 71.0405 217.807 71.3949C217.564 71.1325 217.334 70.8555 217.107 70.5773C217.093 70.5594 217.087 70.5415 217.104 70.5157C217.141 70.5347 217.175 70.556 217.208 70.5796C217.303 70.6469 217.384 70.7287 217.473 70.8016C217.482 70.8095 217.491 70.8162 217.5 70.8229C217.886 71.1291 218.284 71.4184 218.7 71.6831C219.228 72.0218 219.777 72.3223 220.344 72.5904C221.056 72.9268 221.792 73.2083 222.545 73.4382C222.921 73.5526 223.313 73.603 223.698 73.6793C224.04 73.7466 224.387 73.7892 224.73 73.8475C224.887 73.8744 225.05 73.8879 225.21 73.9002C225.729 73.9406 226.248 73.9933 226.769 73.9754C227.216 73.9608 227.663 73.935 228.108 73.8823C228.63 73.8206 229.149 73.7376 229.661 73.6232C230.435 73.4505 231.186 73.206 231.913 72.8853C232.763 72.5096 233.555 72.0386 234.299 71.4835C234.899 71.0349 235.438 70.5201 235.948 69.9774C236.337 69.5635 236.684 69.1116 237.01 68.6451C237.464 67.9957 237.859 67.3116 238.199 66.5973C238.58 65.7965 238.883 64.9644 239.123 64.111C239.255 63.6389 239.362 63.1611 239.455 62.6789C239.523 62.3279 239.569 61.9746 239.624 61.6213C239.654 61.4262 239.666 61.2266 239.677 61.0281C239.837 58.3254 239.73 55.6193 239.749 52.9154C239.768 50.206 239.752 47.4965 239.752 44.7871V44.6413C239.86 44.7321 239.947 44.805 240.034 44.8779C240.469 45.248 240.936 45.5732 241.423 45.8715C241.86 46.1396 242.312 46.3807 242.776 46.5982C243.577 46.9762 244.408 47.2812 245.258 47.5324C245.873 47.7141 246.497 47.8655 247.126 47.9911C247.605 48.0864 248.086 48.1694 248.569 48.2344C248.863 48.2737 249.161 48.3017 249.458 48.3208C249.655 48.3343 249.85 48.3275 250.045 48.3421C250.15 48.35 250.166 48.3096 250.166 48.2165C250.16 47.2834 250.161 46.3549 250.161 45.4252ZM216.97 70.4125C216.963 70.4102 216.957 70.4069 216.952 70.4035C216.954 70.4013 216.957 70.3945 216.959 70.3957C216.966 70.3979 216.972 70.4013 216.98 70.4046C216.974 70.408 216.971 70.4136 216.97 70.4125ZM217.067 70.5C217.059 70.4966 217.054 70.491 217.046 70.4854C217.053 70.4809 217.058 70.473 217.064 70.4719C217.07 70.4708 217.082 70.4775 217.083 70.4809C217.086 70.4932 217.087 70.5078 217.067 70.5ZM217.805 71.3893C217.827 71.4139 217.849 71.4364 217.869 71.4566C217.847 71.4341 217.825 71.4117 217.805 71.3893ZM236.413 31.6716C238.154 31.6738 239.953 31.6738 239.953 31.6738V31.6727C238.773 31.6716 237.593 31.6716 236.413 31.6716ZM239.953 31.6738C239.953 31.6738 239.949 31.7153 239.951 31.7534C239.951 31.7276 239.954 31.6996 239.955 31.6738H239.953Z" fill="#FEFEFE"/>
<path d="M251.954 50.1163C251.954 50.225 251.931 50.2564 251.818 50.2542C251.394 50.2419 250.974 50.1992 250.554 50.1555C250.217 50.1196 249.883 50.0725 249.55 50.0209C249.171 49.9604 248.794 49.8785 248.419 49.7966C247.685 49.6351 246.961 49.4389 246.251 49.1922C245.68 48.9948 245.12 48.7705 244.571 48.5159C243.886 48.1985 243.23 47.833 242.608 47.4046C242.253 47.159 241.906 46.8999 241.583 46.6083C241.55 46.6184 241.567 46.6498 241.567 46.67C241.583 47.8072 241.537 48.9432 241.539 50.0804C241.544 54.0627 241.544 58.0461 241.536 62.0284C241.535 62.4366 241.498 62.8471 241.444 63.2542C241.408 63.5233 241.384 63.7936 241.341 64.0628C241.279 64.4519 241.204 64.8366 241.119 65.2201C241.002 65.7517 240.857 66.2732 240.684 66.7879C240.478 67.4081 240.228 68.0103 239.946 68.6013C239.604 69.3202 239.194 69.9987 238.739 70.6502C238.527 70.9542 238.295 71.2435 238.056 71.5272C237.846 71.7795 237.622 72.0218 237.391 72.2528C237.066 72.578 236.726 72.8887 236.363 73.1746C236.033 73.4337 235.697 73.6815 235.344 73.9081C234.747 74.2916 234.12 74.6168 233.464 74.8882C232.885 75.1271 232.294 75.3211 231.688 75.4714C231.322 75.5611 230.952 75.6295 230.58 75.6912C230.205 75.7529 229.828 75.7865 229.454 75.8392C229.349 75.8538 229.241 75.8101 229.138 75.865H227.651C227.628 75.8179 227.584 75.8415 227.55 75.8404C227.141 75.8258 226.736 75.7731 226.33 75.717C226.008 75.6721 225.69 75.6116 225.369 75.5656C224.653 75.4613 223.969 75.2494 223.293 74.997C222.892 74.8467 222.499 74.6752 222.109 74.4969C221.437 74.1896 220.8 73.8217 220.186 73.4158C219.826 73.1791 219.483 72.9178 219.147 72.6453C218.71 72.2898 218.297 71.9085 217.908 71.5014C217.904 71.4969 217.899 71.4924 217.895 71.488C217.886 71.479 217.877 71.4689 217.867 71.4577C217.848 71.4375 217.826 71.4151 217.803 71.3904C217.473 71.0371 216.875 70.3676 216.891 70.3441C216.967 70.3833 217.087 70.4775 217.204 70.574C217.305 70.657 217.402 70.7422 217.469 70.796C217.478 70.8039 217.486 70.8106 217.495 70.8173C217.881 71.1235 218.279 71.4128 218.695 71.6775C219.224 72.0162 219.772 72.3167 220.339 72.5848C221.052 72.9212 221.787 73.2027 222.541 73.4326C222.917 73.547 223.308 73.5974 223.694 73.6737C224.036 73.741 224.382 73.7836 224.726 73.8419C224.883 73.8688 225.045 73.8823 225.206 73.8946C225.725 73.935 226.244 73.9877 226.764 73.9698C227.212 73.9552 227.658 73.9294 228.103 73.8767C228.626 73.815 229.144 73.732 229.657 73.6176C230.43 73.4449 231.182 73.2004 231.909 72.8797C232.759 72.504 233.55 72.033 234.295 71.4779C234.895 71.0293 235.433 70.5145 235.944 69.9717C236.333 69.5579 236.679 69.106 237.006 68.6395C237.46 67.9901 237.854 67.306 238.194 66.5917C238.576 65.7909 238.878 64.9588 239.118 64.1054C239.251 63.6332 239.357 63.1555 239.45 62.6733C239.519 62.3223 239.565 61.969 239.62 61.6157C239.65 61.4206 239.661 61.221 239.672 61.0225C239.833 58.3198 239.725 55.6137 239.744 52.9098C239.763 50.2004 239.748 47.4909 239.748 44.7815V44.6357C239.855 44.7265 239.943 44.7994 240.029 44.8723C240.464 45.2424 240.932 45.5676 241.418 45.8659C241.856 46.1339 242.308 46.375 242.771 46.5926C243.573 46.9705 244.404 47.2756 245.254 47.5268C245.868 47.7085 246.492 47.8599 247.121 47.9855C247.6 48.0808 248.081 48.1638 248.564 48.2288C248.858 48.2681 249.157 48.2961 249.454 48.3152C249.65 48.3286 249.845 48.3219 250.04 48.3365C250.146 48.3443 250.161 48.304 250.161 48.2109C250.158 47.2823 250.159 46.3537 250.159 45.4252C250.159 44.4461 250.16 43.4671 250.16 42.4892C250.167 42.4869 250.174 42.4869 250.182 42.4869C250.352 42.5419 250.532 42.5576 250.708 42.5845C250.98 42.626 251.255 42.6563 251.53 42.6854C251.645 42.6978 251.761 42.6877 251.877 42.709C251.939 42.7202 251.956 42.7381 251.95 42.7931C251.948 42.8099 251.95 42.8267 251.95 42.8436C251.951 45.2682 251.951 47.6916 251.954 50.1163Z" fill="white"/>
<path d="M228.332 47.8263C228.324 47.8285 228.316 47.8319 228.308 47.8341C227.833 47.833 227.356 47.8117 226.883 47.8364C226.331 47.8644 225.783 47.9283 225.236 48.0237C224.62 48.1313 224.016 48.2816 223.421 48.4745C222.997 48.6124 222.584 48.7784 222.176 48.9646C221.548 49.2517 220.947 49.5847 220.375 49.9716C219.965 50.2498 219.575 50.5537 219.196 50.8755C218.814 51.1985 218.459 51.5495 218.119 51.9129C217.687 52.3761 217.293 52.8729 216.931 53.3943C216.501 54.0168 216.119 54.6683 215.79 55.3491C215.544 55.856 215.331 56.3763 215.142 56.9079C214.876 57.6548 214.676 58.4185 214.525 59.1945C214.453 59.5613 214.408 59.9336 214.362 60.3048C214.271 61.0337 214.252 61.7638 214.267 62.4961C214.276 62.9212 214.315 63.344 214.362 63.7668C214.436 64.4374 214.56 65.0979 214.73 65.7506C214.911 66.4403 215.146 67.1121 215.431 67.767C215.749 68.5016 216.14 69.1935 216.583 69.8585C216.688 70.0167 216.801 70.1692 216.891 70.3441C216.79 70.2578 216.685 70.177 216.59 70.0839C216.103 69.6073 215.647 69.1027 215.233 68.5588C214.819 68.0126 214.451 67.4395 214.122 66.8373C213.708 66.0792 213.386 65.2841 213.126 64.4632C212.932 63.852 212.788 63.2285 212.682 62.5971C212.622 62.2326 212.579 61.8648 212.543 61.4958C212.529 61.3455 212.559 61.1885 212.499 61.0416V59.2775C212.531 59.2585 212.524 59.2271 212.524 59.199C212.525 58.848 212.582 58.5026 212.622 58.155C212.7 57.4507 212.852 56.761 213.034 56.0791C213.2 55.459 213.412 54.8522 213.659 54.2601C214.066 53.2856 214.563 52.3615 215.168 51.4957C215.433 51.1167 215.72 50.7544 216.016 50.3989C216.35 49.9986 216.718 49.6307 217.097 49.2775C217.742 48.6764 218.45 48.156 219.208 47.704C220.011 47.2263 220.858 46.845 221.748 46.5613C222.37 46.3628 223.003 46.2069 223.651 46.1138C224.006 46.0633 224.36 46.0219 224.715 45.9871C225.284 45.9321 225.854 45.9276 226.421 45.9467C226.87 45.9624 227.319 45.9916 227.764 46.0645C227.912 46.0891 228.061 46.1037 228.21 46.1161C228.301 46.1228 228.329 46.1632 228.329 46.2518C228.331 46.7766 228.332 47.3014 228.332 47.8263Z" fill="#FFC727"/>
<path d="M239.953 31.6716V31.6727C239.953 31.6727 237.972 31.6727 236.157 31.6705C235.871 31.6705 235.589 31.6705 235.32 31.6694C235.209 31.6694 235.1 31.6694 234.994 31.6694C234.728 31.6682 234.48 31.6682 234.257 31.6671C234.125 31.6671 234.101 31.7052 234.101 31.8286C234.103 40.8362 234.103 49.8438 234.103 58.8525C234.103 59.642 234.108 60.4326 234.101 61.2221C234.098 61.673 234.055 62.1204 234.007 62.569C233.945 63.1365 233.851 63.6972 233.701 64.2478C233.631 64.5002 233.486 64.7188 233.359 64.9431C233.035 65.514 232.625 66.0186 232.144 66.465C231.794 66.7902 231.411 67.0683 230.991 67.2971C230.416 67.6111 229.809 67.8388 229.164 67.9588C228.936 68.0014 228.706 68.0305 228.474 68.0541C228.243 68.0776 228.013 68.0765 227.783 68.0731C226.979 68.063 226.206 67.896 225.46 67.5965C224.922 67.3812 224.425 67.0919 223.978 66.7263C223.492 66.3293 223.085 65.8616 222.778 65.265C222.891 65.3244 222.976 65.3671 223.059 65.4142C223.578 65.7069 224.136 65.8986 224.714 66.0377C225.356 66.1913 226.007 66.2205 226.657 66.179C227.5 66.1252 228.304 65.8941 229.058 65.505C229.467 65.2942 229.845 65.0373 230.197 64.739C230.721 64.2927 231.15 63.769 231.515 63.1892C231.813 62.7148 232.011 62.2068 232.094 61.6472C232.151 61.2659 232.208 60.8834 232.26 60.501C232.29 60.27 232.311 60.0356 232.311 59.8035C232.311 59.4054 232.343 59.0084 232.341 58.6102C232.338 49.0767 232.339 39.5443 232.339 30.0107C232.339 29.9726 232.341 29.9345 232.339 29.8974C232.334 29.8335 232.357 29.8021 232.424 29.8088C232.454 29.8122 232.483 29.8088 232.513 29.8088H239.609C239.795 29.8088 239.803 29.8133 239.8 29.9973C239.796 30.512 239.86 31.02 239.948 31.5258C239.957 31.5707 239.953 31.6223 239.953 31.6716Z" fill="#FFC727"/>
<path d="M230.122 49.5432V55.958C230.122 56.1217 230.123 56.1127 229.963 56.0847C229.797 56.0555 229.628 56.0398 229.459 56.0241C229.214 56.0028 228.967 56.004 228.721 55.995C228.071 55.9726 227.431 56.0354 226.794 56.1699C226.189 56.2989 225.615 56.503 225.074 56.7991C224.707 57.0009 224.367 57.2432 224.048 57.5179C223.526 57.9688 223.117 58.5071 222.79 59.1115C222.501 59.6465 222.304 60.2162 222.183 60.8105C222.134 61.0528 222.105 61.2973 222.078 61.5429C222.042 61.8614 222.054 62.1787 222.06 62.4961C222.068 62.8965 222.127 63.2912 222.217 63.6815C222.238 63.7779 222.262 63.8733 222.288 63.9652C222.483 64.6729 222.788 65.2392 222.78 65.2628C222.773 65.2594 222.765 65.2549 222.759 65.2515C222.583 65.1596 222.404 65.0441 222.253 64.9241C222.073 64.7828 221.9 64.6347 221.741 64.4676C221.275 63.9753 220.926 63.4123 220.694 62.7731C220.562 62.4075 220.452 62.0363 220.378 61.6561C220.319 61.3578 220.278 61.055 220.263 60.7489C220.254 60.5649 220.238 60.3833 220.243 60.1994C220.261 59.5467 220.352 58.9063 220.543 58.2794C220.74 57.6312 221.038 57.0335 221.436 56.4884C221.875 55.8884 222.422 55.3995 223.06 55.0137C223.646 54.6604 224.277 54.4193 224.941 54.2668C225.229 54.2006 225.523 54.1625 225.817 54.1278C226.275 54.0728 226.734 54.0694 227.193 54.0863C227.514 54.0975 227.838 54.112 228.154 54.1805C228.285 54.2085 228.31 54.1872 228.31 54.0459C228.31 51.9745 228.311 49.9043 228.311 47.833C228.319 47.8307 228.327 47.8285 228.336 47.8251C228.393 47.852 228.454 47.8532 228.517 47.8554C228.948 47.8677 229.375 47.9081 229.8 47.9754C229.876 47.9877 229.955 48.0113 230.034 48.0034C230.119 47.9945 230.127 48.0348 230.127 48.1044C230.121 48.5855 230.122 49.0643 230.122 49.5432Z" fill="white"/>
<path d="M243.827 38.6393C243.738 38.6168 243.612 38.5047 243.552 38.4531C243.128 38.092 242.736 37.6972 242.38 37.2666C241.832 36.606 241.379 35.8872 241.01 35.1145C240.64 34.3429 240.355 33.54 240.157 32.7078C240.085 32.4062 240.021 32.1023 239.957 31.7983C239.956 31.7961 239.956 31.7938 239.956 31.7916C239.955 31.786 239.955 31.7793 239.954 31.7725C239.954 31.7714 239.954 31.7692 239.953 31.7669C239.951 31.7254 239.954 31.675 239.954 31.675H239.956C240.464 31.6739 240.971 31.675 241.479 31.6716C241.552 31.6705 241.569 31.6952 241.569 31.7647C241.565 32.2088 241.611 32.6518 241.672 33.0903C241.772 33.808 241.921 34.5156 242.135 35.2098C242.324 35.8199 242.547 36.4143 242.825 36.9885C242.918 37.187 243.013 37.372 243.107 37.5402C243.109 37.5413 243.109 37.5436 243.11 37.5447C243.438 38.1324 243.747 38.5237 243.814 38.6179C243.819 38.6247 243.822 38.6292 243.824 38.6336C243.824 38.6348 243.825 38.6359 243.826 38.637C243.826 38.637 243.827 38.6381 243.827 38.6393Z" fill="#F7A84C"/>
<path d="M250.187 40.9124C250.185 41.4373 250.185 41.9621 250.184 42.487C250.176 42.487 250.169 42.4881 250.163 42.4892C249.772 42.4253 249.389 42.3333 249.01 42.2234C248.356 42.0339 247.721 41.7917 247.116 41.4776C246.518 41.1681 245.957 40.8036 245.438 40.373C245.163 40.1453 244.894 39.9143 244.651 39.6553C244.614 39.616 244.577 39.5756 244.54 39.5353C244.284 39.256 244.038 38.9611 243.83 38.6392C243.83 38.6381 243.829 38.637 243.828 38.6359C243.828 38.6359 243.828 38.6347 243.826 38.6336C243.825 38.6325 243.825 38.6314 243.824 38.6302C243.825 38.6302 243.825 38.6314 243.826 38.6314C243.956 38.7233 244.088 38.822 244.218 38.9151C244.238 38.9297 244.258 38.9431 244.277 38.9566C244.744 39.2818 245.238 39.5577 245.756 39.7932C246.095 39.9468 246.438 40.0882 246.79 40.2025C247.431 40.4123 248.085 40.5726 248.752 40.6713C249.2 40.7386 249.65 40.7969 250.103 40.8182C250.173 40.8238 250.188 40.8507 250.187 40.9124Z" fill="#FFC727"/>
<path d="M115.637 138.147C119.959 119.449 108.305 100.787 89.6066 96.4655C70.9082 92.1436 52.2466 103.798 47.9247 122.496C43.6027 141.195 55.2571 159.856 73.9555 164.178C92.6538 168.5 111.315 156.846 115.637 138.147Z" fill="#F7A84C"/>
<path d="M80.9354 120.688C80.8564 122.899 80.9091 125.136 80.9091 127.531H89.5414C89.1727 130.373 88.8574 133.005 88.436 135.611C88.4097 135.874 87.752 136.19 87.3833 136.216C85.3042 136.269 83.2252 136.242 80.9618 136.242V165.036C77.7773 164.983 74.7238 164.483 71.8028 163.614V136.295H64.2495V127.61H71.6455C71.6718 126.952 71.7245 126.426 71.7245 125.925C71.7771 123.636 71.6981 121.346 71.9088 119.082C72.3829 114.108 75.4356 110.608 80.3575 109.923C83.4103 109.502 86.5947 109.844 89.8062 109.844V117.74C88.6745 117.74 87.5165 117.714 86.3848 117.74C85.3847 117.766 84.332 117.714 83.3583 117.951C81.9618 118.267 80.9881 119.214 80.9354 120.688Z" fill="white"/>
<path d="M80.9381 296.309C85.7745 276.377 73.5369 256.298 53.6047 251.462C33.6725 246.625 13.5935 258.863 8.75709 278.795C3.92068 298.727 16.1583 318.806 36.0905 323.643C56.0228 328.479 76.1017 316.242 80.9381 296.309Z" fill="#F7A84C"/>
<path d="M21.156 311.25C22.1841 307.549 23.0965 304.109 24.1129 300.698C24.4428 299.59 24.3537 298.708 23.8283 297.648C16.662 283.202 26.1707 265.742 42.2295 263.779C56.9936 261.976 69.4849 273.11 69.1683 287.794C68.9095 299.827 58.6964 310.203 46.6171 310.744C42.4953 310.928 38.5744 310.207 34.8052 308.511C34.1493 308.216 33.2478 308.17 32.5403 308.34C28.8398 309.223 25.1645 310.212 21.156 311.25ZM26.9306 305.645C29.2847 305.037 31.2729 304.457 33.2939 304.039C33.9546 303.902 34.799 304 35.3924 304.31C38.4118 305.891 41.5821 306.75 44.9964 306.811C57.2602 307.026 67.1402 295.634 64.8041 283.687C63.1889 275.426 58.1101 270.006 49.9102 268.129C41.4969 266.202 34.34 268.913 29.2503 275.863C24.2747 282.658 24.1434 289.981 28.2066 297.389C28.5623 298.036 28.6569 298.984 28.5052 299.719C28.1143 301.63 27.517 303.499 26.9306 305.645Z" fill="white"/>
<path d="M34.8108 277.642C36.4299 275.461 38.6011 275.892 39.7347 278.299C40.1773 279.242 40.2828 279.558 40.719 280.632C41.3727 282.252 41.2265 283.341 40.0576 284.388C39.207 285.15 39.2867 285.821 39.877 286.696C41.7143 289.419 44.0888 291.465 47.1012 292.798C48.0167 293.204 48.6195 293.113 49.2895 292.312C51.3801 289.813 51.4114 289.839 54.3644 291.229C54.7052 291.389 55.043 291.554 55.3815 291.716C57.6504 292.804 57.9928 294.845 56.1469 296.64C54.2619 298.475 51.9798 298.894 49.4826 298.26C43.1107 296.644 38.5479 292.634 35.0226 287.271C33.9492 285.638 33.1439 283.904 33.2096 281.882C33.4183 280.011 33.9288 278.83 34.8108 277.642Z" fill="white"/>
<path d="M536.997 325.175C541.352 306.988 530.139 288.714 511.953 284.359C493.766 280.003 475.491 291.216 471.136 309.403C466.78 327.589 477.993 345.864 496.18 350.219C514.367 354.575 532.641 343.362 536.997 325.175Z" fill="#F7A84C"/>
<path d="M491.446 330.304V304.303L522.45 317.304L491.446 330.304Z" fill="white"/>
<defs>
<filter id="filter0_d" x="445.139" y="116.96" width="121.475" height="121.475" filterUnits="userSpaceOnUse" color-interpolation-filters="sRGB">
<feFlood flood-opacity="0" result="BackgroundImageFix"/>
<feColorMatrix in="SourceAlpha" type="matrix" values="0 0 0 0 0 0 0 0 0 0 0 0 0 0 0 0 0 0 127 0" result="hardAlpha"/>
<feOffset dx="2" dy="2"/>
<feGaussianBlur stdDeviation="9.5"/>
<feComposite in2="hardAlpha" operator="out"/>
<feColorMatrix type="matrix" values="0 0 0 0 0 0 0 0 0 0 0 0 0 0 0 0 0 0 0.25 0"/>
<feBlend mode="normal" in2="BackgroundImageFix" result="effect1_dropShadow"/>
<feBlend mode="normal" in="SourceGraphic" in2="effect1_dropShadow" result="shape"/>
</filter>
</defs>
</svg>
